<?xml version="1.0" encoding="UTF-8"?>
<svg id="Layer_1" data-name="Layer 1" xmlns="http://www.w3.org/2000/svg" viewBox="0 0 2145 1879">
  <defs>
    <style>
      .cls-1 {
        fill: #0d0d0d;
      }

      .cls-2 {
        fill: #ede84e;
      }

      .cls-3 {
        fill: #0c0c0c;
      }
    </style>
  </defs>
  <path id="Star4" class="cls-2" d="M1812.95,316.9l3.74-6.05c3.27-1.47,4.45-3.37,6.51-5.89l12.12-14.83,6.68-7.28,7.41-7.54,14.78-16.43c2.84-3.16,6.07-5.7,8.42-9.54,1.27-2.08,4.03-4.22,5.77-3.58,1.94,3.24,4.43,6.27,7.53,6.68l-.32-9.33c3.88,5.93,9.21,5.27,14.2,7.17l6.33,2.7,12.71,4.43,14.01,4.81,19.98,7.25c6.51,3.71,7.86,15.62,10.45,15.64l4.64.03-1.96-11.29c3.21.83,7.09-1.11,7.92-4.42l-13.24-5.44-1.96-5.57c-5.15-4.21-7.79-9.35-8.39-15.91l-4.04-4.02-6.97-14.99c-1.67-3.59-3.12-6.14-4.41-9.98-1.74-5.16-5.93-10.18-5.84-15.94.06-3.63,4.4-6.63,6.31-9.39l20.94-30.15,12.33-19.6,11.34-14.17c-2.03-3.03-5.13-2.43-7.85-1.84l-27.6,6c-2.02.44-6.15.6-7.3,2.12l-3.83,5.07c2.98.92,6.35.36,9.59-.46l11.79-2.97,13.26-2.46-8.99,14.14-22.98,34.14-12.72,16.19c-3.49,4.44-6.98,7.89-6.02,14.65l7.6-3.59-.02,3.72c0,.57.78,1.93,1.09,2.41.31.48,1.41-.98,2.58-2.31l2.49,10.95,4.32,7.4,8.63,18.44c2.32,4.96,6.15,9.31,5.59,15.58l-19.73-6.73-8.91-3.24-13.53-5.53c-1.12-.46-3.62-.44-4.83-.77l-20.6-5.56c2.41-2.12,4.18-6.31,1.38-7.56-1.7-.76-5.1,2.55-5.74,4.13-4.35,1.56-6.54,4.39-6.6,8.69-5,3.78-9.06,8.36-12.48,13.51l-11,10.96-9.49,10.49-10.54,11.44c-3.94,4.27-6.29,8.35-11.54,12.61l1.94-12.88,2.19-12.06,2.47-8.27,3.6-12.69c.51-1.78-.37-5.6-.8-7.49l5.49-.64.26-10.43-1.51-2.98,1.59-7.55c.15-.69.41-2.31.9-2.26l2.37.24,1.54-13.46c.17-1.45,1.29-1.88,2.19,1.27-1.25.64-.23.12,1.71-.87-.29-3.91-3.11-8.96-5.51-11.91-.66-.81-1.32-4.28-2.09-3.75-.61.42-2.1,1.83-2.32,2.55l-1.8,5.86-17.14,2.24c-6.71.88-13,2.49-20.25.4l25.79-19.75,18.13-12.16.76,7.09,4.36-.08,4.24-12.85c1.25-3.78-.73-7.1-.84-10.65-.31-9.23,2.59-18.77,3.8-28.03l3.22-24.6c.33-2.52,1.24-5.87,1.97-7.68l6.26,2.84c7.16,3.25,6.82,9.44,12.22,15.47l8.57,9.58,13.2,16.06c2.56,3.11,6.47,6.46,10.14,9.15,3.01-1.9-2.76-6.95-.73-7.31l2.75-.49c4.02-.72,7.06-1.67,11.07-3.15l13.45-4.97c.86-.32,2.16-3.82,1.35-4.04-4.17-1.12-11.9.49-16.21,4.57l-12.06-.44-3.16-5.7-1.05,5.03,1.25,1.88-7.37-.09-2.72-6.41c2.32.11,3.66.33,4.37-.29.75-.66,1.83-3.09,1.15-3.75l-5.46-5.3.03-1.58c0-.46-1.67-1.19-1.69-.73-.24,4.27,1.52,5.28.1,6.89-.76.87-3.37,1.38-3.73.51-1.35-6.29-10.56-10.64-11.95-15.13l-1.97-6.34c-4.34-1.44-8.31-5.59-7.55-10.11-3.67,2.03-7.45-5.93-8.52-11.33-.68-3.46-.54-4.99-3.18-6.88-1.36-.98-3.97-.9-5.65.44l3.12,8.01-.39,8.44-4.19,25.17-3.76,20.83-3.94,24.12c-.77.61-2.61,1.72-2.35,2.4l1.34,3.53c.25.67-2.11,1.7-2.7,1.29l-2.11-1.49-8.23,7.31-6.72,5.52-7.3,5.72-7.03,5.03-12.54,9.28c-3.1,2.29-6.86,4.31-9.47,6.95l-3.89-3.79c-5.04,6.6-8.37,13.75-15.57,12.43l-.75,6.44,7.12-1.19,11.2-2.79,11.17-2.77,40.06-5.73-3.51,18.91-3.27,16.66-3.37,16.58c-1.37,6.74-1.4,14.68-4.14,20.86-1.37,3.08-2.16,4.43-2.2,7.68-.03,2.57-.34,7.05-1.12,9.21l-2.74,7.58c-2.01,5.57-10.22,13.07-6.8,13.28,5.91.37,4.73-4.1,11.9-7.52v.07Z"/>
  <g id="star3">
    <path d="M1573.43,393.2l7.05-33,2.75-19.15,4.36,7.49,1.37,2.02c.32.47,2.27-.38,2.19-.94l-.33-2.53-.71-5.45c-2.78-7.05-3.05-14.35-1.31-21.96l3.74-16.4c-3,.65-5.77,2.18-7.89,4.14-.54-2.97-2.63-6.68-6.3-5.96.22,4.67,1.98,10.96.79,14.88-1.43,4.69-1.46,6.5-1.23,11.55.45,9.73-2.86,17.24-1.18,22.92l-.66,1.25c-1.34-2.39-1.33-2.03-2.14-1.74l-2.11,11.51c.96,8.41.81,16.25-1.36,24.54l-3.97,15.19c-.55,2.1-1.11,3.1-1.38,5l-1.54,10.95,3.8-.12c3.49-7.81,4.35-16.17,6.06-24.2h0Z"/>
    <polyline class="cls-2" points="1633.06 450.17 1666.55 523.47 1596.83 478.93 1537.32 549.32 1548.06 452.75 1485 428.29 1565.11 406.56"/>
    <polyline class="cls-2" points="1588.8 319.67 1606.52 388.02 1678.86 347.9 1633.06 450.17"/>
    <path d="M1599.58,394.78c3.77.53,5.93,3.18,6.69,6.21.39.98,3.82-.26,3.88-1.36.19-3.8-2.16-5.91-1.15-6.98.36-.38,1.55-1.26,2.07-1.52l10.69-5.22,17.07-12.04c-3.03.12-5.53,1.06-7.96,2.25l-24.34,11.91-5.46-13.88c-1.4-3.55-.21-8.64-4.45-10.92-1.41,5.9,1.17,9.82,3.68,14.61,2.45,4.67.45,11.96-.71,16.96v-.02Z"/>
    <path d="M1486.31,434.81l9.1,1.9c4.16,3.51,9.22.43,16.33,4.55l5.35.78c2.25,1.74,5.24,2.48,7.62,3.52l11.35,4.98,11.2,4.39c4.47,1.75,2.91,7.21,2.58,10.73l-1.03,10.99c-1.42,15.19-1.57,29.9-5.01,44.87-1.53,6.65-2.69,12.63-2.61,19.78l-3.86,8.02c-.15,3.48-.6,5.38-1.81,7.98l3.6,1.24c1.1.38-1.18,7.62,4.24,8.12,3.66-8.19.37-15.07,5.92-22.29l12.21-15.89,5.31-6.61,5.32-6.7,9.05-11.02,5.39-5.37,7.7-8.69c1.65-1.86,4.51-5.36,7.5-3.52l7.48,4.6,15.89,8.85,7.66,4.01-1.47,4.9c-.29.97,3.62,1.84,3.45,1.59.75-1.53,2.25-3.91,3.41-3.92s3.01,1.01,4.5,1.72l3.08,1.46c.52.24.76,1.95,1,2.85l2.26-1.99c.56-.49,2.68.97,2.95,1.67l2.53,6.65c.64,1.68-3.4,3.53-5.62,3.69l9.11,6.37c.34.23,1.84.41,1.69.08-1.73-3.75-5.39-3.15-4.23-6.75.44-1.38,2.99-2.89,4.03-2.09,1.55,2.46,3.84,4.13,7.11,3.23l.25-5.92c2.32.84,4.8,1.07,5.12-.04.35-1.18.21-3.06-.16-3.8-7.92-.33-12.01-4.75-14.04-11.31-3.23-4.48-5.38-9.16-5.36-14.78l-3.04.39-5.5-11.78c-1.45-3.1-3.34-6.02-3.47-9.12-6.13-5.7-5.49-11.65-2.75-18.55l16.5-41.5,6.57-17.45c1.92-5.09,4.8-9.95,1.74-16.39l-7.67,18.85-5.02,11.73-3.34,7.81-5.08,13.96-4.25,11.14c-1.76,4.61-1.14,9.31-3.99,13.46-2.65,3.86-4.53,8.57-5.05,13.45l4.75,1.95,5.95,12.82,4.19,12.4,2.54-3.52,5.63,18.38-10.48-4.6.22-4.07c.02-.41-.99.02-1.69.4.29,2.05-.2,2.19-1.18.89-6.52-1.24-11.85-4.53-16.8-8.31-1.53-.33-5.19-1.03-6.16-2.1-2.58-3.15-7.1-5.19-11.28-6.61l-6.87-2.33-10.06,10.82-7.05,8.01-21.72,26.26-3.79,4.59c-1.7,2.41-3.39,5.95-6.46,7.49l2.45-16.33,1.78-11.93,2.14-9.81c-.75-4.62-.74-9.28,1.23-13.35l.43-27.1c.05-2.87.18-6.04-.53-8.52-3.67.86-4.69,1.72-7.2,3.69l-.05-3.55c-.01-.68-2.91-.69-3.64-.94l-15.28-5.24-17.02-6.09-6.83-1.84c-4.03-1.09-6.85-1.55-9.91-4.69l14.49-4.28c3.91-1.15,7.59-2.09,11.17-3.97,4.76-2.5,9.37-4.86,14.66-6.37,24.36-6.95,9.78-8.31,9.78-8.31l-9.27,3.88-24.89,9.1-10.36,3.6-8.22,1.94-7.68,2.3c-1.09.76-.28,6.19,1.3,6.52h-.03Z"/>
  </g>
  <path id="Star2" class="cls-2" d="M403.43,400.22c7.75.86,14.68,3.74,22.4,5.08l12.99,2.24,16.24,3.76,21.28,6.12c-3.09,9.75-.7,19.54.63,29.46.36,2.66.88,5.35,1.63,7.52l.11,16.45,1.02,19.56-.02,15.6.62,8.04c.23,3.01-.92,4.98-4.08,7.28l5.71,4.09c2.31-1.38,4.07-3.92,6.15-6.01l11.03-11.1,8.74-9.99,12.12-14,4.87-6.06,10.99-13.06,9.03-10.03c2.03-2.25,1.87-9.16,7.93-9.2,4.56-.03,10.3,2.08,15.13,3.23l17.64,4.18,15.04,1.99c13.88,1.84,27.18,3.25,40.49,8.19,4.87,3.44,9.56,10.5,11.24,16.32.82,2.83.96,5.09,2.56,5.49,2.15.53,5.1-.57,4.97-1.98l-1.08-11.57c-2.31.01-6.27-.93-7.75-2.95-1.9-2.6-2.34-5.32-2.52-8.8-.17-3.23-1.58-4.77-3.04-7l-7.59-11.59-9.01-12.99c-.42,3.1-.79,5.15-2.03,6.22-.93-3.52-.95-5.27-.62-7.51l-4.56-1.17,4.36-2.07c-.84-1.19-2.24-3.09-3.14-2.89l-3.55.81,1.73-3.62c.35-.73-1.76-2.18-2.23-2.86l-3.51-5.14c-3.62-.97-4.05-2.77-5.82-5.56l-6.83-10.78c2.71-6.09,5.23-12.39,6.89-19.02,3.58-14.31,8.74-27.25,13.62-41.18l7.28-20.81,8.62-25.49-2.63-.23c-.46-.04.02-2.37.44-2.15l2.13,1.08.23-5.15-3.54-.87-2.1,12.26-3.46-5.66-1.39,6.69-6.78,10.23-9.27,6.57c-4.3,3.05-16.27,4.89-25.65,11.87-1.59.44-3.6,1.24-5.23,2.09l-15.27,7.92-9.32,3.28-5.41-10.68c-5.02-9.93-10.63-19.79-18.37-27.69.13-1.91-.03-5.06-1.26-5.45s-4.75.68-4.38,1.92c.28.93,1.62,3.45.82,3.75l-3.74,1.38c1.5,4.54,3.54,10.46,6.01,14.67l6.81,11.61,4.61,7.09,5.5,7.96c1.71,2.48,5.43,6.48,7.63,8.72,4.44.29,5.11-4.44,5.25-7.6,5.46-4.44,13.16-7.12,19.62-10.24l26.24-12.68c5.79-2.8,11.51-4.01,15.76-9.48.84-1.08,3.31-2.28,4.99-2.74l-6.19,16.49-12.2,34.79-9.95,29.02-5.33,3.74c1.25,2.95,1.44,4.84,1.11,8.25-.18,1.82,4.37,3.12,6.36,3.05,1.58,4,3.7,8.1,6.19,11.64l5.06,7.2c4.72,6.7,5.12,14.19,13.21,20.89l5.21,8.47c1.38,2.24,2.67,3.59,2.17,5.7l-34.53-5.4-23.74-4.16c-5.92-1.04-11.23-2.38-16.1-4.96l9.17-1.81c-9.1-6.12-17.91,1.11-20.28-6.07l-4.56,3.35c-1.75-1.66-3.76-3.24-4.96-2.81-1,.36-2.17,2.51-2.6,3.61l-3.44,8.74-5.3,10.66-10.36,17.59-5.77,8.19-5.41,1.42-10.8,16.49-4.68,6.09c-.31.4-1.92.48-1.82-.01l.43-2.08c.27-1.3-.07-3.47,0-5.14l.62-14.77,3.45-38.24,1.44-21.33c-.91-.74-3.64.06-5.2,1.08-1.34-1.71-2.15-7.14-.61-8.35l13.16-33.59-14.9,27.83-2.31-9.75c-1.74-.51-4.75,2.31-5.86,5.05l-18.51-2.98-16-2.95-10.77-2.43-16.72-3.47c1.81-2.78,6.23-3.45,8.46-4.97,3.5-2.37,6.61-4.81,10.8-6.17,4.29-1.4,7.71-3.28,11.64-5.32l14.33-7.44c9.17-4.76,18.08-7.95,27.03-14.31l2.54,11.37c4.6-1.42,7.38-6.14,5.99-10.92l-4.07,6.9,2.09-12.01,6.71-3.91,13.98-7.94c-3.25-2.63-4.74-.71-7.08.56l-6.83,3.72-.25-3.81c-.05-.84-1.92-1.3-3.42-1.75-1.28-4.37.46-8.77,1.22-13.44l3.36-20.56c.56-3.45,2.02-6.45,3.05-9.72,2.04-6.44,2.28-13.23,2.93-20.33l4.71.57c.19,4.52.51,8.68,1.44,11.73,7.01.63,5.04,8.21,6.76,8.38l4.84.49c.39-11.46-9.57-16.36-8.45-24.55,1.39-.43,3.52-1.47,2.99-1.77-.35-.2-.93-.57-1.33-.49l-2.32.46-1.05-8.97c-.5-.02-2.06.85-2.27,1.5l-.86,2.68-.85-12.92h-8.71c2.74,6.44,1.62,9.4-.17,14.49l-3.96,11.32c-2.14,6.1-1.12,14.35-2.32,21.03l-5.61,31.08-2.12,14.92c-5.69,5.04-12.44,9.2-19.35,12.56l-6.87,3.35c-2.45,1.19-4.11,1.86-7.01,1.72l-12.3,7.42-6.11,2.8c-4.11,1.88-7.88,2.71-11.35,5.35-4.8,3.65-11.24,5.62-16.59,9.21-3.68,2.47-7.76,3.33-11.83,2.83-2.66,4.1.73,9.65,5.56,10.19l.05-.04ZM541.73,318.64l-2.73-.5c-1.22-3.61-2.29-6.36-2.24-11.14,4.06,4.27,6.57,11.94,4.97,11.64ZM536.37,449.75c.85,2.24.5,5.71-.18,7.01-6.33,3.64-4.91,9.38-6.39,9.11l-3.57-.65,10.15-15.47h-.01ZM478.96,416.86c.21-1.01,3.72.98,3.98,1.65-.16,3.15,1,6.04,3.5,8.16l-2.1,1.98c-.39.37,1.28,1.36,1.71,1.69l1.29.99c.41.31.26,2.44-.25,2.34l-2.91-.62,1.1,23.38c.24,5.03,1.16,9.16-3.11,12.75l-.45-12.36-.42-10.97-2.56-24.78c-.11-1.06.04-3.39.21-4.19v-.02Z"/>
  <g id="Star1">
    <path d="M207.82,217.64c-1.29-1.51-1.97-2.02-1.81-2.49l1.08-3.12-11.79-5.03c-3.43-1.46-5.25.36-7.04,3.37-1.57,2.63-6,4.16-8.78,6.01-2.23,1.49-4.42,2.23-7.68,2.49l-3.24,5.64c-2.77-.47-6.02-.57-8.06.43-2.79,5.86-6.84,8.28-12.69,9.63-.28,5-4.27,7.29-8.46,7.42-2.96,3.31-5.82,6.27-9.15,9.04l-12.37,10.26c-1.56-3.78-.15-7.3,2.41-8.81l6.76-4c-.74-.93-1.86-2.15-2.6-1.96l-4.14,1.06c.82-8.96,6.6-13.48,8.38-24.51.43-2.64,1.4-5.47,2.37-7.93l3.06-7.78-1.95-10.76,4.02.75c.6.11,1.98-2.18,1.42-2.42l-3.38-1.47c-2.87-10.85,10.05-17.82-.49-21.66l-11.02-4.02-17.26-5.53c-2.01-.65-2.84-1.21-4.8-2.46l-12.44-7.99c-.12.66-.4,3.02.44,3.5l3.02,1.75,4.91,3.08-8.71.51,4.96,1.66-3.15,2c-.6.38,1.37,2.75,2.15,2.9,5,.94,13.16,1.54,17.95,3.37l16.02,6.14-1.58,17.2c-.23,2.5-1.94,5.97-2.79,7.94-1.61,8.87-3.02,16.33-7.26,24.27-1.58,2.95-2.17,6.97-2.98,10.2-1.95,7.84-4.17,16.18-2.19,23.78.35,1.34,1,4.29.31,5.23s-2.6,1.97-4.1,2.58l-11.33,4.6c-1.05.43-1.79,3.9-.85,4.38.76.38,2.84.8,3.63.57l6.7-1.9,1.15,7.48,5.72,1.52c1.04-9.62,5.68-14.81,12.93-19.62l6.64-4.41c3.91,0,5.91-2.69,6.56-6.15l12.27-7.97,27.64-20.35,9-6.1,8.64-5.39c4.76,2.72,9.27,3.39,13.94,3.1v-.03Z"/>
    <path class="cls-2" d="M282.82,260.58c-28.42-20.31-57.58-39.64-87.4-57.94l-84.49,58.16,27.42-89.85-84.08-41.96h94.79l19.48-77.46,37.61,55.58,105.73-28.36-56.09,80.13"/>
    <path d="M262.67,211.86c2.29,4.59,5.58,8.78,7.24,13.73l3.57,10.65,3.42,12.28,2.9,5.9c1.6,5.69,4.97,11.11,11.4,12.97l.45-7.81c-1.88-2.69-4.08-5.72-4.98-8.8l-2.54-8.69-5.85-14.65-2.95-9.07-2.95-9.09-3.67-12.81-2.87-13.58-3.53-12.59-.3-8.66c-.06-1.65-4.74-3.06-6.22-2.76-4.26,5.25,1.71,8.11,2.74,14.55l2.16,13.5-2.94-4.41c-1.82-2.73-3.4-5.69-4.35-8.85l-12.64-15.01c-.16,5.98,3.32,9.85,5.83,14.19,6.94,12,9.22,25.29,16.07,39h.01Z"/>
  </g>
  <g id="DiscoBall">
    <path d="M1071.49,546.4l15.09-3.65c.85-.21,2.6-.85,2.95-.25l1.7,2.93c1.07-3.51,3.27-5.15,7.49-5.79l13.37-2.05c.51-.08,1.66-2.56,1.26-2.88-.41-.31,1.89,1.42,2.31,1.73,2.51-.24,7.14-.79,9.71-1.67l21.26-7.2,23.39-9.44,11.62-7.14c4.25-2.61,6.78-4.25,11.24-6.28,4.01-1.83,8.73-6.28,12.06-9.46l6.67-6.39,12.72-11.62c1.34-1.23,4.11-1.04,6.83-.17l1.96-3.88,4.62-5.23,14.15-10.08-4.01-3.72c-.7-.65.75-3.1,1.21-3.99l4.27-8.38,1.2,2.11c.19.33.88-.19,1.02-.55,1.96-4.93,3.77-2.61,6.73-9.99,3.13-7.8,4.81-14.97,6.35-22.95l1.6-8.3,4.33-14.7,1.6-8.46,1.08-10.85c1.71-6.98,2.84-12.96,2.89-20.22l.17-25.78.51-6.23.62-17.88.34-11.39-5.26,4.13.06-4.98c.16-12.97-4.06-18.08-3.83-26.92.02-.63.2-2.44-.28-2.47l-2.35-.16.23-6.36-.86-14.2-.34-2.58c-.07-.55-1.5.47-1.77.95l-1.27,2.22-2.8-5.23c-.79-1.48-2.67-11.14-2.42-13.94.35-3.89-.35-5.99-3-8.38-3.17-2.86-3.22-7.11-3.27-12.26-3.16,1.19-3.88,4.55-3.53,7.66l.94,8.38c4.44,8.95,8.11,21.44,8.33,30.31-3.52.23-2.16,1.44-.83,2.16l6.74,3.92.44,8.24.17,18.86c.02,2.33,1.16,5.12,2.17,7.61l1.12,8.81c1.38,4.36,1.78,8.11-1.85,11.76,3.48,1.07,4,3.24,3.85,6.38l-.65,14.14-25.27,23.86-6.48-3.42c-.44,2.22-1.4,6.06-1.42,7.99l-.27,22.45c0,.65-.52,2.58.11,2.55l2.05-.1c.42-.02.46-1.31.52-2.11l1.3-16.7,2.95-7.63c1.06.33,4.24.17,5.31-.78l8.1-7.18c3.18-2.82,5.92-5.03,9.89-7.33l.03-2.5c0-.59,3.05-.33,3.01.26l-1.09,15.08-1.7,21.96c-.24,3.13-3.16,7.07-4.92,9.67l-1.87,2.75c-.38.56-2.28-.21-3.07-.49.48,4.66-1.29,6-4.37,8.82l-10.66,9.75c-.77.7.67,4.77,1.36,4.14l2.28-2.09,1.8-2.26c.28-.36,1.34.87,2.26,1.77,3.4-2.9,6.21-7.38,8.28-11.09l7.03-5.33c.36,2.16-.36,6.1-.98,9.17l-2.17,10.73c-1.14-.15-2.57-.56-2.74.08l-.8,3.04c-.55,2.07-2.24,5.59-2.32,8.12-.06,1.89-.65,3.29-2.12,4.95l-1.57-6.48c-1.11,3.2-1.78,6.85-1.9,10.17l-2.71,2.35c-.49.42-.24,2-.33,2.72-2.12,2.63-3.79,6.4-4.89,9.5l-4.99,3.25-7.71,7.37-7.58,7.75c-.99,1.01-4.43,1.74-4.85,1.24l3.42-13.69c-5.43,1.44-7.61,7.63-7.53,12.99l-3.28,4.93c-2.47,3.71-4.95,6.29-9.63,7.67l-.22,5.1,4.44-1.89c-1.28,3.16-2.8,4.09-4.97,5.79-3.56,2.77-6.78,5.18-10.83,7.24l-3.2,2.5c-3.14.24-7.29,2.33-8.11,4.84l-1.13,3.46c-.19.57-2.24-1.15-2.82-1.43-2.34-.09-6.11,1.79-8.92,4.03-1.54-5.6,3.48-9.02,8.29-11.28l12.97-6.11,7.7-3.13c.7-.28,1.22-2.76,1.96-2.94l4.02-.99c.44-.32-2.08-3.1-2.98-2.72l-2.98,1.25-23.86,10.01c-.94-5.04,4.79-7.13.92-13.07l-3.31,6.17c-1.5,2.8-3.15,7.18-5.47,8.97-2.08,1.6-3.49,2.89-4.33,3.93l-4-2.07,2.21,7.04c-.7.66-1.84,1.65-1.55,2.05l1.63,2.21-4.53,5.5-25.19,6.91-11.59,1.82.56-6.75-4.22.52c-.64.08-1.13,2.56-1.19,3.36-.27,3.39-3.22,5.7-7.19,5.36-1.03-.09-2.88-.42-3.39.24l-1.82,2.4c-.81-.64-1.71-1.57-2.24-1.3l-3.73,1.96,9.75.87,7.04.16-.41,6.18-1.22-2.41c-.21-.42-.81-1.99-1.01-1.6-2.19,4.21-1.01,6.85-2.14,7.02l-4.16.62c-.78.12-4.05-.11-3.9-.88l.82-4.29-8.52.81-15.2,1.6c-3.37.35-7,2.34-8.94-2.69.95.09,2-3.47.98-3.37l-8.89.82c-.28.96-1.08,3.3-1.75,2.96-4.34-2.23-3.61-4.91-6.05-5.09-1.08-.08-4.39.31-5.49-.35-2.45-1.47-6.81-3.02-9.77-.96.07-2.22.02-6.13-1.33-7.11-1.49-1.08-4.86-2.07-6.36-1.42-2.91,7.15,6.98,6.66,8.07,11.98-.42.42-2.99,1.55-2.6,2.07l2.33,3.05c-3.76.62-8.56,1.02-10.51-4.15l5.02,1.25.9-4.71-7.93-.91c-3.38-.39-6.31-.79-9.39-2.69-.45-.39-2.18,2.37-1.39,2.94l3.04,2.19c.96.69-4.05,2.04-4.24.88l-.77-4.75-3.36-4.22-9.15,2.6,2.51-3.26-8.77-2.37-8.29-3.62c-4.12-1.8-8.29-2.91-13.21-.54l14.33,4.85,6.33,1.98c-.19.52-1.37,3.57-.55,4.27l3.04,2.6,1.5,1.28c.27.23.2.7-.12.72l-2.47.18c-3.53.25-5.96-.9-8.58-2.17l-13.07-6.35c-1.03-.5-3.43-2-4.35-1.47l-2.94,1.69,11.07,5.25,6.36,3.23,17.09,7.32,10.47,1.53c5.67,1.82,10.37,2.01,15.93,3.49l17.4,4.65.85-1.15-10.14-4.68,7.47-1.11c.67.52,2.04,1.68,2.58,1.38l1.65-.9,8.1,1.26,6.05.32,6.22-.19c5.98,1.2,11.75.5,18.16.56l7.87.07c-8.72,4.41-18.2,5.39-28.01,5.99l-3.26-1.87-13.47.12,5.36,2.3-7.6,4.62-3.79,2.68c5.26.47,10.25.84,15.03-.2l18.34-3.97-.02-.02ZM1118.84,521.29l7.57-2.27-.09,7.7c3.15-3.04,2.99-4.84,3.85-9.23.46.13,2.34,2.24,2.29,3.16-.12,2.48-2.01,6.29-5.07,6.94l-6.66,1.41,3.56-6.04-4.11.87c-.72.15-1.6-2.21-1.35-2.54h0Z"/>
    <path d="M839.85,303.59l.78,10.38c.23,3.07,1.83,6.78.71,10.36-1.28,4.08-1.59,8.1-.41,12.31l6.08,3.93-1.43-12.69c4.11.53,4.63,3.35,5.44,7.55,2.97-4.02,1.57-10.31-2.92-12.23-.7.7-2.26,2.12-2.49,1.49-.17-.47-.74-2.11-.72-2.74l.34-16.75,5.13-.95-.12-10.48c-3.8-.72-4.57-4.36-3.95-7.52l3.21-.15c2.5-.12-1.99-9.78,2.69-17.99l-6.88-.47c8.32-9.22,4.29-22.13,4.76-22.17l1.77-.15,1.65-11.52c.53-3.71,2.03-6.22,5.3-7.93-.71-7.07,2.47-14.05,5.25-20.24l3.22-7.19,6.04-14.97,17.02-20.97,4.19-.18c.69-.03,1.19,2.02.74,2.55l-2.33,2.76-5.77,15.39-4.14,11.03c-.54,1.44-.34,4.87.07,7.52l3.86-9.8,4.29-10.66,5.76-10.58-6.75,31.96-2.23,8.75-2.1,12.15c-1.66,9.63,2.91,13.4,3.26,12.74l1.44-2.68c-1.84-3.26-2.42-7.75-1.44-11.82l2.91-12.08c3.72-.92,6.48-1.99,7.97-4.89.92-1.81.58-4.97-.3-8.17-2.91,2.06-3.24,4.25-3.65,8.08-4.13-2.91-2.08-7.09-1.16-10.57l4.12-15.68,4.49-15.55c1.13-3.9,2.03-6.37,4.49-10.28l3.45,5.66c4.69-5.22-2.77-9.4-.31-13.3,4.09.74,7.2.92,9.44-.41l-1.37-6.82c2.74,1.32,5.22,2.9,6.44,2.17l4.89-2.93c1.41-.85,3.43-2.35,3.06-3.57l-1.82-6,3.69-.04c-.41,1.43-.09,3.92.86,3.86,7.01-.48,14.73-9.53,15.68-9.03l2.94,1.56-2.6,2.15c-.53.44-.36,1.91-.46,2.57l-2.35,3.84c7.01.77,5.28-10.26,10.06-11.96,1.42-.51,5.14-.73,4.97-1.89l-.74-5.05c1.45-.52,4.19-1.24,4.51-2.4l1.18-4.27c.15-.55,1.86-.78,2.11-.31s1.36,2.74,1.06,3.18l-6.38,9.11,10.64-3.1,3.5-.12c.59-.02.2-2.09-.15-2.57-.35-.48-1.53-1.07-1.98-.68l-1.97,1.69c-.39.34-1.9-1.66-1.96-2.3-.24-2.75,3.57-6.16,7.21-7.81l8.29-3.76,18.82-3.57c.9-.17,3.03.84,2.77,1.29l-3.59,5.65c-1.81,2.85-4.23,12.45-4.11,18.3l5.23-10.6c1.43-2.59,2.4-3.76,2.05-7.29l5.15-9.03,11.58-3.75c6.91-2.24,13.23-4.54,20.54-3.91l.47,7.5c2.45-1.01,4.49-4.1,4.74-6.32.19-1.7-1.98-4.6-3.64-4.94l-11.3.67c-3.57.21-7.52,2.92-11.19,3.6l-6.01,1.1-.04-9.76-.77-.16,1.36-2.34c1.41-2.44-3.13.71-8.21,1.2-2.09.2-4.75.68-5.06,2.05-.28,1.2-.06,4.78.13,4.65,4.41-2.21,6-2.97,10.61-3.15-1.2,2.67-3.03,6.31-4.79,8.59-5.28,3.85-11.32,4.83-17.83,6.03l-1.74-4.64c3.36-1.32,4-1.46,5.21-4.49l-8.84,1.68-8.31,2.67-7.53,1.52-9,4.26-19.07,9.99-15.82,9.03-8.08,5.08-18.36,13.7-6.97,5.68-13.29,14.04-4.19,7.55c-.4.72-.57,3.41-1.15,2.99l-3-2.19-2.68,8.42c-1.91,1.38-4.16,3.46-5.36,5.82l-5.01,9.82-4.2,4.83c-2.03,2.34-3.77,4.63-4.12,7.9-.49,4.61-2.77,6.9-3.93,11.1l-4.05,14.75-1.08-8.98c-1.79,4.03-2.96,7.26-3.34,10.55l-1.4,12.27-.48,15.38-.05,10.06-2.14,9.85c-.85,3.92.24,7.27,2.03,9.76l-.97,19.45-.07-.03ZM948.37,114.69l7.44-2.51c.09.67.49,3.59.56,4.03h0l-7.4,3.03c-.47,1.35-1.94-4.1-.59-4.55h0ZM927.95,121.92c2.17,4.08-4.06,4.23-9.03,10.54-1.28-3.52,3.48-7.34,9.03-10.54Z"/>
    <path d="M1194.13,228.52l-.51-4.18,9.25.63,17.58,1.19,11.36,5.55,5.06,27.77,2.25,15.8c1.71,5.41,1.81,9.33,2.39,15.22l1.22,12.49,1.03,11.56c2.01-6.15,1.33-11.38,2.11-17.04.98-7.09,1.63-14.66-.77-21.4-1.16-3.24-1.49-6.28-2.22-9.87l-4.13-20.51c-.75-3.75-3.4-8.33-2.47-12.09l4.18-1.6-5.33-6.17-3.75-9.15-5.7-19.66-1.82-7.36-5.2-14.67c-1-3.89-2.47-7.43-5.22-10.13-2.14-4.76-4.79-9.19-7.87-13.63l-8.73-12.61c-3.39-4.89-7.56-8.9-12.45-13.19l.61,7.39,5.85,2.13,6.43,9.75,4.8,7.5,3.87,6.32,7.94,15.49,5.49,14.24,2.39,10.95,4.1,14.49c1.12,3.95,1.84,6.85.39,11.37l-1.12-3.32c-.22-.65-2.34-.75-2.94-.45-.65.32-2.3,1.27-2.6.82l-1.51-2.19-14.44-.3c-5.38-.11-11.93,2.48-14.25-4.69l-7.64,2.27,1.28,5.56c1.08,4.68,7.58,6.96,11.06,5.76l.03-.04Z"/>
    <path d="M1071.42,502.43c-1.17,3.76-1.01,4-2.64,6.69l-5.06-10.62-6.06-9.31-1.52-1.27c-.29-.24-1.09,2.12-.87,2.41l4.25,5.53c-2.19,4.67-9.22-.54-16.95,4.53-1.95-.67-4.35-1.43-6.94-1.73l-14.36-1.64c-.68-.08-2.58-2.84-2.94-2.25l-1.66,2.77-8.11-1.79-5.46-3.22c-.65-.38-2.19-.79-2.85-.93-.44-.09-.41,1.82-.26,1.95,1.28.51,4.03,1.82,4.5,2.93.4.96.52,2.46.75,4.28,9.11.59,14.05,10.15,14.7,7.94l.5-1.7-1.21-1.53,1.37-6.02,1.84,3.7c7.44-.69,14.36.5,21.14,3.08,3.07-1.7,5.38-1.3,7.71,1.09.49-1.57.99-3.96,1.81-3.95l3.93.07.77-3.11c.18-.74,2.77-1.4,2.42-1.1-1.63,5.36,6.4,3.84,4.94,11.81-.26,1.42.62,4.01,1.66,4.8s4.81.31,4.85-.4c-1.4-5.73,2.62-8.5-.23-13.03l-.02.02Z"/>
    <path d="M1135.47,266.38c-.95-.06-2.95,1.58-2.92,2.51l.06,10.77v17.33c0,6.79-.27,13.25-.95,19.64.25,3.08.03,5.48-.24,8.45l-2.93,33.26c.62,2.51,2.3,2.37,2.16-.02l.81-7.82,3.5-23.5.61-29.74c.05-2.68.48-5.65.36-8.24l-.33-7.08c3.09-6.37,1.81-15.43-.13-15.55h0Z"/>
    <path d="M953.55,377.36l1-2.46c.63-1.55.37-4.6-.67-6.02l-6.89.72-1.57-13.77-1.59-8.14c-.41-2.11-1.13-3.71-3.53-5.27l-.27,12.5c-.1,4.53,2.14,8.71,1.54,13.81l-7.71.41c-.56.03-1.91.74-1.75,1.23.16.49,1.19,2.01,1.7,2.11l8.19,1.6c1.91.37,2.87,5.58,3.35,7.44l5.22-7.19,2.32,3.2c.2.28.54.13.66-.17h0Z"/>
    <path d="M1106.79,496.17c4.11-7.77,10.2-.11,15.38-3.63,5.4-3.68,7.08,2.24,11.17-.79,2.81,1.38,9,0,10.45-2.49.56-.97-.1-4.85-.38-4.47l-18.46,3.07-10.92,2.08c-2.23.43-4.96.19-6.54-.24l-7.21,3.29,6.51,3.19h0Z"/>
    <path d="M1126.71,450.6c1.04-7.01,2.7-14.26,1.42-21.48-3.24,5.5.18,11.13-3.79,15.5-1.77,1.95-1.7,4.61-1.02,7.29-2.21,2.83-3.5,7.22-1.14,10.45l9.29-4.04c.51-1.61,1.02-5.8-.18-6.2l-4.58-1.52Z"/>
    <path class="cls-1" d="M1067.55,549.48c-26.26,0-69.22-17.42-83.36-23.47-32.45-13.9-72.29-35.45-83.09-49.9-28.51-38.14-43.35-81.19-59.06-126.76l-1.7-4.92c-18.51-53.62-9.44-115.55,23.67-161.61,25.25-35.13,60.28-49.21,97.36-64.11,9.57-3.85,19.47-7.82,29.42-12.24,52.95-23.51,116.19-22.84,169.16,1.79,52.33,24.33,94.01,71.99,111.5,127.51,11.02,34.97,12.77,71.91,14.47,107.63.79,16.69-.16,34.98-13,44.64-4.56,14.4-14.06,29.75-22.46,43.32-3.13,5.05-6.08,9.82-8.71,14.39-14.86,25.86-38.01,47.16-70.78,65.13-29.16,15.99-61.51,27.1-92.16,37.11-3.19,1.04-7.01,1.5-11.27,1.5h.01ZM1073.15,95.29c-27.48,0-54.88,5.54-79.92,16.66-10.05,4.46-20,8.46-29.62,12.33-37.83,15.2-70.5,28.33-94.73,62.04-31.99,44.51-40.75,104.34-22.87,156.15l1.7,4.92c15.55,45.12,30.25,87.73,58.19,125.12,8.55,11.44,42.47,31.62,80.65,47.98,41.92,17.96,76.56,26.31,90.4,21.79,66.43-21.69,128.61-45.63,159.6-99.53,2.68-4.66,5.65-9.47,8.81-14.56,8.81-14.23,17.92-28.94,22.12-42.87l.3-1,.86-.6c11.25-7.81,12.02-24.63,11.29-40.05-1.68-35.34-3.42-71.88-14.2-106.12-16.99-53.93-57.48-100.24-108.3-123.87-26.37-12.26-55.36-18.4-84.28-18.4h0Z"/>
  </g>
  <g id="DiscoStar2">
    <path class="cls-2" d="M951.94,455.8c-.63-2.22-5.28-4.47-8.28-4.91-.04-.86.34-2.64-.43-2.9l-3.12-1.08-2.67-1.38c-.42-.22-1.25.57-2.27,1.27l-.04-4.4c0-.68,8.92-8.42,16.65-5.8l-13.63-5.73,21.14,16.03c.74,2.83,2.63,4.14,5.55,5.6l-2.22,3.86c-3.18-1.21-5.31-2.43-8.42-4.67-.63-.79-3.23.09-1.31,1.06,2.29,1.87,2.88,3.17,2.59,5.34-.07.52.07,1.77.18,2.24.07.31,1.19.18,1.34-.12l1.15-2.3c2.53,2.37,4.91,4.88,5.48,8.35l-10.58-4.72c.12,1.1.46,2.36.06,2.84l-1.73,2.05,6.51-.24c.5-.02,2.48.81,2.07,1.07l-2.28,1.47,6.6,3.98-3.48-5.57,12.89,2.92,8.19.65c1.55-2.56-2.91-6.36-5.11-5.13l2.4,3.1-9.39-2.07-3.9-7.07,6.65.65c2.47.24,7.25-1.14,9.84-1.91-10.78-2.39-16.73-3.23-17.44-12.9,4.09,2.45,7.77,3.32,11.55,1.08l-15.63-4.89-4.36-5.25,9.68.43-2.42-4.9,11.27-1.27,20.78-3.84,40.27-7.28c1.6.49,2.21.19.78-1.6l-17.9,1.47-27.01,4.46c-10.07,1.66-21.07,4.38-31.03.26l-10.83-4.49-6.43-2.26c-9.35-3.28-13.65-10.93-15.89-9.39l-2.69,1.84c-2.19-1.64-6.44-4.61-8.02-6.83l-4.5-6.32-4.68-7.6c2.67-4.92-1.13-8.31-4.91-11.03-3.62-2.61-3.15-7.81-2.3-11.64l-2.49-7.42-.78-8.32,7.83,19.97c.34.86,1.09,2.25,1.7,2.78s2.9.24,4.59-.16l-4.92-9.85-5.37-14.44-2.36-8.89c3.28-2.39,4.06-6.59,1.95-10.51l-2.51,4.47-5.04-3.86c-1.98,2.08-2.14,4.11-2.18,7.01l-.07,6.31,3.33,23.8-.28,7.84,1.38,11.66-6.55-3.15c1.28-1.27,2.44-2.24,1.94-2.89l-2.01-2.59c-.79-.7-2.71-1.89-2.13-2.49l2.44-2.53c.48-.5,2.02,1.17,2.39,1.65,2.58-3.39-2.34-3.18-3.05-4.31l-9.37-14.71c-.27-.43-.15-2.38-.52-2.53l-1.25-.5c-.28-5.07-1.03-9.9-2.22-14.62l-3.41-13.6c2.74,2.25,3.56,3.21,6.95,4.93-.86-4.9-8.55-5.85-13.17-14.1-.85-.08-3.4,2.49-3.08,3.58l1.19,4.08c.26.89.52,3.36,1.46,3.68l4.84,1.64-5.04,1.48,2.82,9.84c-.2.71-1.19,2.72-.66,3.21l2.41,2.26c.3,4.78,1.6,9.72,4.59,13.92l1.85,9.56c1.95.86,3.74,1.61,4.39,2.43,1.61,2.06-2.16,6.16.37,9.33,2.54-.1,5.14.21,6.02,1.28.85,1.04.92,3.47.95,4.89l.14,9.66,4.13-.06.1,9.35,6.72.07-3.49,6.81,2.62,2.77c2.01,2.12-5.71,4.77-9,10.25l-7.3,2.09-2.51-3.86-.13,5.76-8.23,2.36c-2,.57-6.75-1.06-8.37-1.8l.27-4.16-2.43,4.91-3.6-.71c-.53-.1-1.08,1.05-1.66,2.2l-11.17.04-13.67,1.47c-3.85.41-7.6-.8-10.9,2.23l22.74.85,23.15,1.54c3.83.25,6.94,2.48,11.45.88,3.02-1.08,6.93-1.72,6.74-5.72l-2.78,1.01c-.45.16-1.26-.98-.66-1.12,10.93-2.47,31.8,26.12,34.62,15.96l-8.69-30.89,1.2-8.74c.12-.89,1.53-3.03,2.36-2.6l3.09,1.57c.18-.12,1.59-1.69,2.09-1.33l2.61,1.89c3.18,2.31,6.59,7.54,10.01,9.22l10.07,4.97c2.59,1.28,4.86,3.64,6.09,6.39-5.41-.64-9.89-.33-13.25,2.89l.41,5.72c-.65.17-1.23.34-1.35.08l-1.1-2.39c-3.11,1.41-5.71,4.71-6.03,8.05l-1.61.81c-.69,3.68-1.89,7-3.87,10.6l-1.08,5.61-8.04,1.41-3.02-7.76c-.31-.8-.24-3.3.57-3.72l3.22-1.65,117.54-13.57-133.15,3.4-1.38,6.64c6.11.35,8.17,4.77,10.23,9,2.38,4.88,4.4,9.61,5.38,14.8l.55,2.94c.12.63,2.68-.01,2.77-.65l.33-2.48c.15-1.12-.32-2.87-1.13-5.16-.13.03,2.16-.49,4.12-.93l-.93,11.5-3.37-.69,1.68,15.08,1.41,10.92,2.79,9.06c1.63,5.3,2.2,11.58,2.15,17.07l-.13,17.01.36,16.36.75,11.51c.25,3.86-2.42,7.67,1.47,12.04l2.08-13.07,1.92,10.99c1.81-4.46.1-9.07,0-13.87l-.31-16.04,3.62,7.13c.63-2.93.04-5.81-1.05-9.18-2.11-6.53-.29-14.97-2.81-21.14-1.52-3.73-2.02-4.38-1.42-8.81.63-4.75-.65-10.59-.89-15.88l3.69,1.99-1.65-9.65-.85-10.31c-.29-3.52.1-7-1.59-10.14l1.46-2.33c.31-.49-5.58,91.08-5.73,90.53-.34-1.33,6.84-106.7,7.44-107.62l3.54-5.37,5.55-4.12.76,3.15c.1.43,1.81-.05,2.04-.07,1.94,3.14,4.48,5.59,7.59,7.73l7.87,5.42c-.28-2.76.01-4.15,1.14-6.79l.05.03Z"/>
    <path d="M928.04,595.54l-.7-.79c-2.87-3.21-2.36-6.24-1.91-8.91.2-1.19.39-2.31.31-3.43l-.76-11.59c-.16,2.24-.27,3.62-.3,3.84l-.06.4-.82.07-.1-.4c-.05-.18.35-7.18.98-17.54l-.06-2.68.13-17.03c.05-6.29-.71-12.3-2.13-16.92l-2.79-9.06-1.43-11-1.76-15.77,3.49.71.83-10.26c-1.13.25-2.26.51-2.91.66.82,2.41,1.11,3.84.97,4.86l-.33,2.48c-.12.91-1.88,1.33-2.59,1.35-.94.02-1.12-.46-1.16-.67l-.55-2.94c-1-5.32-3.16-10.2-5.34-14.68l-.1-.2c-2.05-4.21-3.98-8.19-9.71-8.52l-.58-.03,1.58-7.6h.24c-3-2.16-5.96-3.94-8.59-4.69-.19,3.32-3.18,4.29-5.84,5.15-.42.14-.83.27-1.23.41-3.12,1.11-5.6.47-8.01-.15-1.23-.32-2.39-.62-3.64-.7l-23.15-1.54-23.94-.9.9-.82c2.53-2.32,5.34-2.3,8.07-2.27,1.02,0,2.08.02,3.12-.09l13.67-1.47,10.91-.04c.67-1.33,1.21-2.35,2.06-2.19l3.23.63,3.37-6.8-.41,6.3c1.84.77,6.01,2.11,7.71,1.63l7.87-2.26.16-7.01,3.19,4.9,6.76-1.93c1.61-2.59,4.13-4.52,6.16-6.09,1.51-1.16,2.93-2.26,2.99-2.96,0-.1,0-.24-.19-.43l-2.87-3.03,3.28-6.4-6.4-.06-.1-9.33-4.13.06-.14-10.16c-.01-.99-.05-3.63-.83-4.58-.64-.79-2.8-1.21-5.62-1.1h-.25l-.16-.19c-1.56-1.96-.96-4.24-.48-6.07.36-1.36.67-2.54.1-3.26-.52-.67-2.1-1.36-3.78-2.1l-.65-.29-1.88-9.72c-2.69-3.82-4.24-8.5-4.6-13.89l-2.27-2.12c-.65-.6-.15-1.91.29-3.05.08-.2.15-.38.19-.53l-2.92-10.17,4-1.18-3.35-1.14c-1-.34-1.34-1.96-1.61-3.26-.06-.3-.12-.57-.17-.76l-1.19-4.08c-.22-.77.4-1.74.95-2.41.59-.71,1.81-1.89,2.65-1.81l.26.03.13.23c2.34,4.17,5.54,6.48,8.12,8.34,2.5,1.8,4.65,3.35,5.1,5.92l.17.99-.89-.45c-2.8-1.42-3.88-2.33-5.66-3.84l-.21-.17,3.03,12.11c1.2,4.8,1.93,9.51,2.21,14.4l.95.38c.49.2.55.85.62,1.75.03.32.07.85.14.98l9.37,14.7c.13.2.77.43,1.28.61,1.04.37,2.22.78,2.53,1.81.21.7-.05,1.5-.78,2.46l-.4.52-.4-.52c-.45-.59-1.34-1.43-1.7-1.54l-2.33,2.4c.13.31.96.95,1.37,1.27.26.2.5.39.69.55l2.07,2.66c.7.91-.3,1.9-1.48,3.05l5.09,2.45-1.27-10.75.28-7.91-3.32-23.71.07-6.38c.04-3.01.21-5.15,2.31-7.35l.31-.33,4.94,3.78,2.67-4.76.43.8c2.17,4.02,1.43,8.37-1.82,10.94l2.27,8.57,5.35,14.4,5.18,10.36-.62.14c-1.21.28-4.11.85-5.03.05-.71-.61-1.5-2.11-1.84-2.98l-6.54-16.67.44,4.72,2.52,7.5-.03.14c-1.24,5.58-.55,9.22,2.1,11.13,4.18,3.01,7.68,6.48,5.19,11.42l4.53,7.36,4.48,6.29c1.33,1.88,4.74,4.38,6.99,6.04l.63.47,2.4-1.64c1.35-.93,2.94.42,5.33,2.45,2.56,2.17,6.07,5.15,11.01,6.88l6.43,2.26,10.85,4.5c8.64,3.58,18.04,1.93,27.14.33,1.22-.21,2.43-.43,3.62-.62l27.01-4.46,18.2-1.5.17.21c.62.77,1.19,1.63.78,2.24-.38.55-1.23.4-1.97.19l-40.15,7.26-20.78,3.84-10.59,1.2,2.25,4.56,58.85-1.5.07,1-58.4,6.74,10.41,3.26-.96.57c-3.35,1.99-6.84,1.82-11.21-.59.94,7.97,5.91,9.07,15.46,11.16l3.39.75-1.84.55c-3.43,1.02-7.67,2.17-10.03,1.93l-5.7-.56,3.33,6.04,7.82,1.72-1.91-2.47.51-.28c1.45-.8,3.5.12,4.79,1.46,1.38,1.43,1.76,3.11,1,4.37l-.16.26-8.5-.68-11.79-2.67,3.95,6.33-9.08-5.47,2.48-1.6c-.44-.22-1.1-.46-1.31-.46h0l-7.64.28,2.46-2.92c.17-.2.03-1.11-.06-1.66-.04-.27-.08-.54-.11-.81l-.1-.87,10.47,4.68c-.74-2.66-2.64-4.76-4.63-6.66l-.85,1.7c-.27.53-1.17.6-1.55.56-.56-.07-.69-.42-.72-.56-.11-.51-.26-1.81-.18-2.41.27-2-.29-3.14-2.37-4.86-.65-.34-.96-.75-.91-1.21.04-.43.41-.8.98-.97.61-.19,1.41-.15,1.85.33,3.02,2.17,5.06,3.32,7.86,4.42l1.74-3.03c-2.83-1.47-4.54-2.85-5.29-5.51l-3.62-2.74-15.35,1.77.45.23,3.05,1.05c.93.32.85,1.59.79,2.61,0,.12-.01.23-.02.34,3.07.58,7.56,2.75,8.26,5.19l.05.17-.07.16c-1.07,2.51-1.38,3.8-1.1,6.54l.11,1.08-8.76-6.03c-3.29-2.27-5.7-4.69-7.55-7.59-.9.19-2.1.44-2.29-.37l-.58-2.41-4.88,3.61-3.45,5.24c-.2.96-.95,10.38-1.9,23.27.15,1.16.19,2.33.23,3.48.03.84.06,1.7.13,2.55l.85,10.31,1.81,10.62-3.8-2.05c.1,1.58.29,3.22.46,4.81.39,3.51.79,7.14.38,10.27-.52,3.92-.19,4.72,1.03,7.67l.36.89c1.36,3.32,1.49,7.31,1.61,11.16.11,3.43.23,6.98,1.21,10.01.96,2.98,1.76,6.19,1.06,9.44l-.3,1.38-3.27-6.44.27,13.86c.03,1.51.22,3.03.41,4.49.41,3.16.83,6.42-.45,9.58l-.66,1.61-1.71-9.75-1.77,11.15.02.02ZM925.74,559.77l.25,11.1.75,11.48c.08,1.24-.12,2.47-.32,3.66-.4,2.41-.79,4.7.98,7.21l2.37-14.91,2.07,11.82c.42-2.28.12-4.62-.2-7.06-.19-1.5-.39-3.04-.42-4.6l-.35-18.23,3.89,7.66c.17-2.34-.38-4.69-1.25-7.39-1.02-3.17-1.14-6.79-1.26-10.29-.12-3.77-.25-7.66-1.54-10.82l-.36-.88c-1.24-2.99-1.65-4-1.09-8.19.4-3.01,0-6.58-.38-10.03-.13-1.16-.26-2.35-.36-3.53-.24,3.88-.5,7.89-.75,11.91-.7,11.02-1.44,22.39-2.02,31.06v.03ZM917.78,486l1.61,14.4,1.41,10.91,2.77,8.98c1.45,4.72,2.23,10.84,2.18,17.23l-.02,2.91c1.04-16.32,2.31-35.42,3.37-50.09v-.24c-.17-1.19-.5-2.33-1.09-3.43l-.14-.26,1.73-2.76c.75-9.85,1.34-16.52,1.61-16.91l3.66-5.5,3.69-2.73-10.45,1.21c-.72,2.42-1.71,4.75-3.04,7.15l-1.13,5.88-8.78,1.54-3.16-8.14c-.36-.92-.35-3.75.81-4.35l1.88-.96c-2.16-1.44-4.61-3.4-7.21-5.49-1.85-1.49-3.76-3.03-5.68-4.45l-.74.02-1.18,5.7c5.87.6,7.95,4.88,9.98,9.04l.1.2c2.21,4.54,4.4,9.5,5.42,14.93l.53,2.79c.44.07,1.64-.27,1.83-.55l.31-2.41c.14-1.06-.38-2.83-.96-4.51h-.05l-.11-.47c-.05-.23-.08-.35.4-.53l-.02-.07.43-.1v.03c.66-.18,1.78-.44,3.69-.87l.66-.15-1.03,12.74-3.25-.66-.03-.03ZM928.69,513.87l3.18,1.72-1.47-8.64-.74-8.89c-.27,4.58-.61,10-.97,15.81h0ZM929.03,486.44c.09.19.18.38.26.57.02-.4.04-.76.06-1.08l-.32.51h0ZM966.8,479.9l4.13,2.49-2.32-3.72-.19.19-1.61,1.04h-.01ZM968.16,477.62l13.81,3.13,7.78.61c.38-.98-.24-2.11-.99-2.9-.92-.95-2.1-1.5-2.98-1.44l2.8,3.61-10.96-2.41-4.47-8.1,7.59.74c1.89.19,5.36-.67,7.77-1.35-9.5-2.09-15.23-3.48-15.92-12.93l-.07-.96.83.5c4,2.4,7.06,2.91,9.98,1.62l-10.33-3.23-8.15.94,3.06,2.32.04.17c.67,2.56,2.31,3.79,5.29,5.28l.47.24-2.69,4.69-.4-.15c-3.11-1.19-5.27-2.38-8.53-4.73l-.1-.09c-.05-.06-.23-.13-.48-.12-.27,0-.49.1-.6.17.05.05.16.14.38.25l.09.06c2.39,1.96,3.09,3.42,2.77,5.8-.05.36.04,1.3.13,1.85h0c.15,0,.37-.04.48-.09l1.42-2.83.49.46c2.52,2.36,5.03,4.98,5.63,8.63l.15.92-10.61-4.73c.14.94.26,1.82-.18,2.34l-1,1.19,5.38-.2c.36-.03,1.45.31,2.12.76v-.02ZM915.65,461.44l-2.4,1.23c-.42.22-.65,2.3-.34,3.1l2.87,7.38,7.29-1.28,1.07-5.42c1.23-2.22,2.17-4.39,2.87-6.61l-3.98.46.04.15-.04.13c-.36,1.3-1.03,2.11-1.99,2.42-1.37.44-3.22-.23-5.4-1.56h.01ZM943.78,460.06l.17.27c1.8,2.91,4.16,5.32,7.45,7.58l7.01,4.82c-.11-2.21.25-3.6,1.18-5.8-.72-1.85-4.88-3.97-7.82-4.39l-.41-.06-.02-.41c-.01-.23,0-.53.03-.85.06-1.01.02-1.55-.12-1.6l-3.12-1.08-1.83-.94-1.89.22-.03.02c-.23.17-.48.36-.74.54l-.77.53v-.91l-1.46.17.53,2.18c.22,0,.62-.06,1.22-.19.16-.03.28-.06.33-.06l.31-.03h-.02ZM964.8,471.08h0ZM916.87,461c1.61.9,2.95,1.35,3.88,1.05.6-.19,1.02-.72,1.29-1.61v-.04l-5.17.6ZM903.39,450.83c1.59,1.21,3.17,2.48,4.7,3.71,2.72,2.18,5.36,4.3,7.6,5.75l.49-.22,5.57-.64-2.53-9.01-15.83.4h0ZM920.25,450.4l2.51,8.92,4.56-.53c.25-.91.47-1.84.64-2.79l.05-.24,1.59-.8c.22-1.7.99-3.4,2.12-4.85l-11.47.29h0ZM928.9,456.42c-.15.76-.32,1.5-.51,2.24l11.77-1.36.86-.64.13.52,1.68-.19-.03-3.43c0-.71,2.07-2.27,2.7-2.73.45-.32,1.02-.72,1.71-1.13l-8.16.21-.5.13c-.7.18-1.37.35-1.7-.07l-3.76.1c-1.39,1.52-2.33,3.42-2.51,5.26l-.03.27-1.64.82h0ZM943.8,453.65l.03,3.23.18-.02c.71-.52,1.29-.89,1.83-.61l.63.33,15.79-1.82-6.92-5.25-6.01.15c-3,1.52-5.18,3.47-5.52,4h-.01ZM956.94,449.46l6.76,5.13,6.95-.8-1.93-.6-3.27-3.94-8.51.22h0ZM969.3,452.31l3.79,1.19,49.53-5.72-55.9,1.43,2.58,3.11h0ZM828.72,446.59l21.35.8,23.16,1.54c1.35.09,2.61.42,3.83.73,2.36.61,4.59,1.18,7.42.17.41-.15.83-.28,1.26-.42,2.51-.81,4.88-1.58,5.13-4.11l-2.09.76c-.32.12-.69.01-1.01-.29-.34-.31-.62-.81-.51-1.25.07-.27.28-.47.57-.54,1.09-.25,2.28-.2,3.52.07l.5-.18v.3c3.18.84,6.72,3.06,10.26,5.67l16.84-.43-5.58-19.84,1.21-8.85c.11-.8,1.05-2.43,2.01-2.93.48-.25.85-.17,1.08-.06l2.78,1.41c.7-.67,1.74-1.66,2.47-1.13l2.61,1.89c1.41,1.02,2.81,2.54,4.28,4.15,1.86,2.02,3.79,4.11,5.66,5.04l10.07,4.97c2.7,1.33,5.06,3.81,6.32,6.64l.36.8-.87-.1c-2.18-.26-4.06-.33-5.69-.21l14.52,6.1-.35.93c-1.65-.56-3.35-.63-4.99-.4l.86.65,8.98-.23-1.09-1.32,9.96.44-2.36-4.78,11.97-1.35,20.75-3.83,40.4-7.3.12.04c.48.15.75.18.9.19-.06-.14-.19-.38-.49-.79l-17.63,1.45-26.97,4.45c-1.19.2-2.4.41-3.61.62-9.23,1.62-18.78,3.3-27.69-.4l-10.83-4.49-6.4-2.25c-5.11-1.79-8.7-4.84-11.32-7.06-1.9-1.61-3.4-2.88-4.12-2.39l-2.98,2.04-1.2-.89c-2.3-1.7-5.79-4.26-7.21-6.26l-4.5-6.32-4.85-7.87.14-.25c2.25-4.15-.27-7.15-4.76-10.39-2.99-2.15-3.81-6.09-2.52-12.02l-2.47-7.4-1.12-11.85,9.13,23.27c.35.9,1.07,2.15,1.57,2.59.28.24,1.67.24,3.53-.13l-4.63-9.27-5.39-14.49-2.46-9.27.28-.2c2.82-2.06,3.66-5.6,2.21-9.02l-2.32,4.14-5.13-3.93c-1.57,1.83-1.71,3.65-1.74,6.34l-.07,6.31,3.32,23.72-.27,7.92,1.48,12.49-8-3.85.99-.98c.55-.54,1.57-1.54,1.4-1.75l-2.01-2.59c-.11-.08-.33-.26-.57-.44-1.04-.81-1.73-1.39-1.77-2.03-.02-.25.07-.48.25-.67l2.44-2.53c.17-.17.39-.27.65-.24.67.04,1.53.86,2.05,1.42.21-.36.35-.75.26-1.05-.16-.54-1.09-.87-1.9-1.15-.79-.28-1.47-.52-1.79-1.02l-9.37-14.71c-.18-.28-.23-.72-.29-1.42-.03-.29-.07-.76-.12-.96l-1.42-.57-.02-.32c-.27-4.94-.99-9.69-2.2-14.53l-3.77-15.06,1.17.96c.52.43.98.81,1.39,1.16,1.48,1.25,2.46,2.08,4.41,3.15-.73-1.57-2.37-2.75-4.36-4.18-2.59-1.87-5.8-4.18-8.23-8.34-.41.21-1.21.85-1.82,1.69-.49.67-.56,1.07-.52,1.18l1.19,4.08c.06.21.12.5.19.84.15.71.49,2.36.95,2.51l6.34,2.15-6.08,1.79,2.73,9.5-.04.14c-.05.18-.15.44-.26.74-.18.47-.65,1.71-.52,1.99l2.53,2.37v.2c.35,5.33,1.86,9.93,4.51,13.66l.08.19,1.8,9.31.17.08c1.88.82,3.49,1.53,4.17,2.4.87,1.11.48,2.58.07,4.13-.45,1.71-.91,3.47.15,5,1.93-.05,5.03.09,6.16,1.47.88,1.08,1.03,3.23,1.06,5.2l.13,9.16,4.13-.06.1,9.36,7.04.07-3.7,7.21,2.38,2.52c.34.36.5.76.46,1.2-.09,1.14-1.47,2.2-3.38,3.67-2.01,1.54-4.51,3.47-6.02,5.98l-.1.17-7.84,2.24-1.83-2.81-.1,4.51-8.58,2.46c-2.36.68-7.55-1.3-8.71-1.82l-.31-.14.13-2.01-1.5,3.02-3.98-.78c-.19.1-.71,1.14-1.02,1.75l-.23.45-11.47.04-13.61,1.47c-1.1.12-2.19.11-3.24.1-2.23-.03-4.36-.04-6.32,1.19h-.07ZM914.38,429.51l5.6,19.89,12.65-.32c.94-.96,2.06-1.76,3.27-2.31l.45-.21,1.1,2.39h.56l-.38-5.35.17-.16c1.68-1.61,3.64-2.49,5.69-2.93l-.61-.47.95.4c2.2-.42,4.51-.35,6.71-.13-1.23-2.28-3.22-4.24-5.46-5.35l-10.07-4.97c-2.04-1-4.02-3.17-5.95-5.25-1.44-1.57-2.81-3.05-4.13-4.01l-2.54-1.84c-.16.05-.51.27-1.27,1.01-.16.15-.27.25-.32.28l-.24.16-3.35-1.7s-.09,0-.24.1c-.63.41-1.33,1.63-1.4,2.13l-1.18,8.64h-.01ZM935.86,447.9c-.6.31-1.17.7-1.71,1.14l2.2-.06-.5-1.09h.01ZM938.65,444l.35,4.91,10.11-.26c1.01-.5,2.15-.97,3.37-1.33l-7.92-6.01c-2.45.35-4.32,1.22-5.9,2.68h0ZM953.48,448.09c-.57.14-1.14.31-1.69.5l2.27-.06-.58-.44ZM965.76,448.04l.15.18,2.52-.06-2.68-.12h0ZM949.79,444.03l3.93,2.98c.8-.17,1.62-.27,2.46-.3l-6.39-2.69h0ZM888.33,444.91l.18.18.74-.27c-.32,0-.62.03-.92.09Z"/>
  </g>
  <g id="DiscoStar1">
    <path d="M1063.12,215.93l.89,1.75c.23.46-.65,2.51-1.05,2.17l-2.24-1.9c-.82-.69-2.73-.87-4.26-.92l-6.69-.24-7.27.32-11.12.06-1.63,5.21,7.88,1.43c8.87-1.72,21.31-1.36,29.26,1.17l-13.46,3.09c-1.61-1.73-4.67-3.62-7.37-3.53-2.38.08-6,1.79-6.99,4.12.33,1.18,3.37.72,4.47-.5,3.25,2.83,8.69,2.26,12.69,1.06.9.29,3.06,1.24,3.71.79l2.1-1.48c1.81,1.12,3.39,1.75,6.98,3.1l-.61-7.73c7.61-.34,16.28-.34,23.96,2.06,3.03.95,5.26,1.74,8.23.93,4.05-1.11,6.65.02,9.2,2.48l13.52,13.09,1.12-5.55-14.7-11.1c6.44-.97,11.33-1.51,14.8-5.3-.58-1.96-1.43-4.44-1.41-5.85.01-1.23,2.65-3.13,3.38-4.17l5.35-8.65,6.28,8.96,1.75-1.72c2.39-2.33-4.63-2.29-5.64-10.17-.73-5.73-3-11.19-.75-17,2.71,8.44,1.91,17.68,9.78,23.31-2.96-6.34-6.01-12.03-6.58-18.88,2.96,3.73,3.47,5.4,7.42,6.32,1.62.38,1.01,3.74.83,6.13-.18,2.41,4.03,5.63,5.91,7.06l.07-.87-2.27-3.81c-.53-.89,2.62-2.91,2.85-3.01-4.04-4.12-6.9-8.56-8.83-13.81l-3.32-.16-3.76-16.53c-1.57-6.9-2.56-13.68-2.08-20.18l3.34,3.58-2.29-24.5-.37-21.01c-.67-.09-2.47.51-2.79,1.25l-1.75,4.15.55-20.28.1-5.01.16-32.17c-2.39,3.66-2.05,7.29-1.96,11.05l-1.71,30.51-2.45,1.29,2.13,11.61c.4,2.16-1.01,6.42-1.38,8.53l.56,13.92c.17,4.24,1.33,6.83,1.09,11.24l-.71,13.38c-.1,1.84,2.12,5.93,1.6,7.86-.42,1.54-2.52,3.26-3.96,4.61l-1.68,14.04c-.8,6.65-.6,12.48-.29,19.08.22,4.64-4.75,10.3-8.8,11.93-2.76,1.11-4.39,2.29-6.54,4.23l-13.52,1.32c-2.2-5.17-10.58-3.94-11.01-2.93l-1.38,3.26-10.13-2.83-.16,6.47c-2.82-4.42-3.92-8.86-5.01-14.55l-2.06,8.41h.02ZM1125.86,175c3.33,6.93,3.01,14.2-.46,20.86-1.43-7.42-1.09-13.69.46-20.86Z"/>
    <path d="M1124.99,293.77c-1.38-.17-2.31,3.05-1.88,4.29,1.44,4.14,6.89.24,10.92,3.07l1.44,37.54.74,11.75c.05.87,1.22,2.47,1.79,2.99.38.34,1.51-1.65,1.49-2.23l-.3-9.41.09-10.12,1.15-21.01,1.73-16.08-2.06-23-.38-12.53-5.47,1.38c-.89.22-1.42-2.7-1.42-3.64-2.84-5.17-4.88-9.83-8.84-14.79l7.66,37.37c1.1,5.35,1.77,11.54-1.02,16.08-1.36-.66-3.95-1.47-5.64-1.67h0Z"/>
    <path class="cls-2" d="M1135.18,362.57c2.3-50.28,34.6-143.87-27.75-136.29-146.53,17.82,79.26-6.08,43.65-134.61-12.04-43.46,24.25,125.78,24.25,125.78l-27.5,108.92"/>
  </g>
  <g id="Dancefloor">
    <path d="M1461.78,1865.35l-7.67-21.69-2.74-7.81-3.35-2.74c1.16-3.67.51-8.96-.62-12-.26-.7,1.05-3.27.39-3.53l-3.41-1.37c-.58-5.12-1.46-10.02-3.91-14.49-1.85,2.18-3.46,5.16-3.03,7.18l2.88,13.64c.19.88,3.47,2.16,2.97,2.89l-2.37,3.48c5.52,3.46.27,7.8,5.78,10.81l-2.39,6.82,4.92-2.48c-.18,4.78.73,8.63,3.3,12.22.26,4.05,1.07,7.77,2.65,11.34.95,4.45,2.14,8.22,4.01,11.37h5.79l-1.47-5.63-1.72-8.02h-.01Z"/>
    <path d="M1566.38,1869.41l-2.15-11.54-.09,13.96c-.01,1.97-1.3,5.56-2.6,7.17h2.27l3.13-3.18-.56-6.41h0Z"/>
    <path d="M1789.58,1715.09l-3.26-8.59c-.73-1.93-3.05-4.18-4.46-5.1-.37-3.14-1.54-6.74-3.03-9.75l-5.07-10.19c-1.08-2.18-2.56-3.37-3.78-5.62l-7.26-13.42-4.64-6.51-5.77-10.27-5.84-11.12c-2.45-4.66-6.06-8.32-4.33-14.15-8.26,1.35-8.27-11.25-9.38-11.69l-3.3-1.3c-2.27-8.54-8.76-11.96-9.03-21.55-1.46,2.72-1.93,5.67-.27,8.79l3.76,7.08,4.14,16.82c-1.09,1.54-2.13,3.75-1.44,5.26l3.64-6.72,1.47,6.32c9.05,1.8,8,6.35,9.69,14.87.87.58,2.37,1.43,2.34,2.11l-.1,2.25c5.59,3.69,2.26,7.41,6.96,12.6,2.13,2.35,3.16,3.41,6.09,5.74l-1.68,1.73,4.13,2.72c1.14,4.04,2.9,7,5.32,9.9l1.39,6.78c4.28,3.51,6.08,9.82,8.53,14.11l12.28,21.56,4.87,8.47,6.64-.37c-7.12-3.17-2.65-9.53-8.61-10.74v-.02Z"/>
    <path d="M1086.6,1751.05l-1.41-9.05c-.13-.81-.07-3.49.65-3.43l3.17.26-.03-10.49c-.02-5.77-.08-11.18-1.02-16.45-5.13,3.15-1.55,8.59-2.64,11.42-2.21,5.71-5.14,13.81-2.61,17.25l-.59,23.64c-.1,4.11.17,5.63.72,9.81l1.74,13.36c.65,4.96,1.82,9.91.7,14.26-1.77.67-3.23,1.1-3.23,1.93v3.5c.04,13.1-9.85,19.88.72,23.53-.85,5.59-1.01,11.92,1.17,18.08,4.21-4.98,3.75-9.94,3.89-15.02l1.19-42.34c-2.09-2.03-1.87-4.42.17-6.34l.04-25c0-5.85,1.04-11.24-.47-16.58l-2.15,7.65h-.01Z"/>
    <path d="M636.67,1219.15l-8.47,16.05c-5.46-2.53-10.09.6-11.37,4.47l2.23,3.14,6.2-2.75-5.47,9.67c-1.4,2.48-1.33,4.15-5.19,5.23-3.39.95-.67,7.61-5.43,14.91l-5.58,7.66-3.14,4.81c-.49,0-2.2-.1-2.12.55l.38,3.32-12.95,20.65-10.05,15.67c-1.82,5.06-3.67,9.78-7.84,13.76.18.3,1.57,2.7,1.48,2.55l5.91-7.88,3.17-6.45,7.55-12.61,4.94-7.91,5.44-9.89,5.57-10.12,4-4.88c.89.82,2.53,2.26,3.36,1.83.83-.43,2.59-2.74,1.85-3.28l-3.1-2.28,5.58-1c.95-1.68.42-2.74-2.44-1.59.15-1.37,1.05-5.1,2.01-6.47l3.67-5.16c.69.17,2.9.78,2.9.12s-.41-2.69-.11-3.27l3.24-6.33,4.58-10.32,10.84-.56,13.19.85,8.67-.08c1.6-.01,3.48-.14,3.82-1.21.36-1.12.55-4.72-.56-4.69l-4.3.11-6.83.93c-1.45.2-3.99-.58-5.05-1.15-.98.87-3.64,2.69-4.89,2.1-1.58-.76-3.18-2.35-2.94-3.54l.71-3.59c.09-.43-1.65-.63-1.77-.5l-1.7,3.89c-.37.86-4.15-1.02-3.67-1.9l5.99-10.95,1.39-2.55c.32-.58-2.45-1.71-3.68.63h-.02Z"/>
    <path d="M541.63,1421.82l-3.59,1.75c-1.74-1.57-5.16-1.92-7.64-1.03.49-4.38.59-8.22.35-13.48l-3.63,3.12c2.51,2.98,2.65,7.41.56,9.51l-1.76-5.79c-.28-.91-2.91-.35-3.63-.11l.06-7.41c1.69-3.48,3.26-5.91.78-9.62l-3.11,7.43c-2.18,5.22-1.85,8.77,2.73,13.61l-8.53,4.45c-.79-3.08,2.96-2.9,4.13-7.67.1-.41-1.4-1.11-1.72-.83-3.19,2.7-2.12,6-9.86,7.25-1.87,1.41-.19,6.63,2.02,8.27-.11,2.19,2.91,3.1,2.37-.6l7.58-1.57c1.1,2.41.93,6.5-.71,7.42-1.3.73-3.09,1.67-3.73,2.44-.64.77,0,3.42.91,4.78l1.31-5.44c1.44.25,3.63.24,3.87-.69l1.25-4.98c.56-2.21,5.23-2.75,8.98-2.57l-3.46-2.74c-.63-.5.15-3.33.31-3.32l3.56,4.77,8.12-3.45-2.14,4.05,3.64-.74c.61-.12.99-3.44,1.46-3.09l4.61,3.48,4.1-5.09-5.35-.86c-.96-.15-2.97-1.67-3.83-1.25h0Z"/>
    <path d="M703.17,1704.53c-4.09,3.23-6.65,7.01-8.49,11.26l-3.26,7.52,4.02-3.33v2.89c0-.26-6.66-.87-6.58,17.14l-1.42-2.14c-.17-.26-.58,1.33-.77,1.65l-3.42,5.65c1.01,4.54-2.74,7.51-3.61,11.69l-4.24,20.54c-.74,3.58-2.09,5.87.85,8.69l-4.49,11.82c-.52,1.36,1.66,4.49,3.07,4.26l2.22-8.13,2.86-14.48c.4-2,.61-5.41.72-7.25l3.91-7.89-3.39-1.5,4.53-2.09,8.05-27.51-.25-3.52c-.06-.8,2.74-1.94,2.99-2.75,1.42-4.47,3.31-11.65,5.75-15.66,1.63-2.67,3.2-4.25.94-6.85h.01Z"/>
    <path d="M654.81,1422.14l-6.39,1.83c-1.63.47-4.18.57-6.18.56l-9.56-.05-10.69.92c-3.31-1.4-6.53-1.84-10.32-1.26l-6.54.99c-2.52.38-7.22-.93-9.66-1.28l-8.62,2.07c2.64-4.51,3.64-5.83,4.24-10.27l-8.94,10.7.88-6.83-6.41,1.71c1.19.9,2.49,1.71,2.2,2.09l-1.26,1.65c-1,1.31-3.9,2.03-6.42,2.46-1.7.29-1.9,5.06-.48,6.03l1.64-4.3c12.81-3.26,18.74,8.04,16.94-1.18,2.95-.11,6.49.16,10.07.86,5.23,1.02,10.83-.8,15.96-.66l10.78.29,14.08-.03c6.82-.01,14.22-.85,20.93-1.92,1.56-.25,5.28.66,5.74-1.96-1.62-4.42-6.1,2.03-11.99-2.42h0Z"/>
    <path d="M1537.93,1246.52l-1.68,2.47,2.16,2.28c2.11,2.23,3.41-6.5,8.16-7.56l9.67,2.58c-.81-4.98-5.4-4.59-8.9-4.35l-4.27-3.73.72,3.42c.11.51-1.84.46-2.35.37s-.02-1.47.39-2.8l-5.25-.23-1.04,3.09c-.13.39-1.52-.25-1.62-.65l-.5-2.03c-6.3-2.2-8.29-9.37-6.7-15.5l-3.48-1.89c-.69-.38-.31-2.7-.01-3.43.32-.78.58-1.26.37-1.48-.2-.22-1.06-.97-1.06-.9,0,.09-.82.97-1.72,2.01-5.16-6.72.78-14.37-4.2-9.81-.72-.42-2.41-1.69-2.93-.95l-2.54,3.67-3.69,1.4,1.21,4.45c1.29.18,3.63-.27,3.94-1.24l1.94-6.09.68,3.3c3.64,4.97,6.42,10.74,7.61,16.97l4.4,7.51-4.9,2.08c-1.58-.95-4.06-2.17-5.57-2.17-1.65,0-4.66,1.8-5,3.28-.17.74-.03,3.65.54,3.43l1.47-.56c.38-.14.55-.62,1.28-2.03-.11-.73,1.45-2.17,1.22-.32-.26,1.46-.52,3.08.12,3.12l2.83.19c2.38.16,4.86-.98,6.35-2.98-.07,1.83,3.72,4.95,5.42,4.11l3.65-2.71,3.29,3.69h-.01Z"/>
    <path d="M1089.02,1164.06c.96,1,1.83,2.35,2.56,2.25l3.65-.52,4.75,1.73,25.94.52c.48-1.05.63-4.21-.16-4.94s-2.7-1.45-4.05-1.54l-8.41-.58c-.62-.04-2.16,1.18-2.7,1.48-.4.23-1.68-1.58-2.14-1.59l-16.41-.39c-2.48-.06-4.56-.47-6.71-1.02l-2.79,1.47c-.62.33-2.31-1.52-3.08-1.52l-13.17-.05c-1.72,3.97-3.28,3.69-7.8,5.51l17.86,1.09c4.4.27,9.65,2.43,12.66-1.89h0Z"/>
    <path d="M1382.2,1652.62c2.74-9.42,6.08-19.09,3.48-28.37l-1.87-6.67c-2.15-1.51-5.31-4.18-5.88-5.85l2.71-5.39c1.01,1.37,2.24,2.3,3.75,2.71l-1.23-12.03-.99-7.74c-5.66-9.64.64-20.53-6.01-21.4.38,1.91,1.65,5.13.75,6.18l-3.48,4.05c2.21,5.67,3,10.98,3.33,17.47,1.41-1.81,1.87-4.05,2.38-6.7.51,1.36,1.71,5.99,1.23,7.83l-2.28,8.83c-2.23-.36-5.66.67-5.67,1.75l4.25,2.05-2.14,3.29c-.87,1.33,5.81,3.46,5.25,5.01l-1.36,3.81,1.57,9.47,1.57,11.81c.43,3.25-2.02,6.6.63,9.9h.01Z"/>
    <path d="M449.59,1543.43c.36-.61.97-2.78.28-2.85l-2.66-.24c1.25-3.2,2.31-3.61,4.85-4.37,3.63-1.08,5.7-7.82,8.22-10.53,3.19-3.43,7.33-6.56,4.39-11.35-1.51-.91-4.06.29-1.62,2.44l-5.83,8.69-3.12,5.04-1.88-5.36-6.83,14.75c-2.25,4.87-2.82,12.35-6.07,16.38-2.5,3.1-4.97,5.32-6.57,8.83-3.7,2.75-6.2,6.86-6.39,11.53-3.05,2.83-4.7,6.17-5.34,10.71l-5.53,8.94c-.45.73-3.85,1.29-3.85,2.17v3.83l.1,2.44c.02.42,1.48.68,1.61.27l.65-2.02c1.88-5.84,4.3-6.15,7.5-12.55l4.02-8.04,4.74-8.14c1.04-1.79,2.54-2.6,4.92-2.23l5.86-13.66,8.56-14.68h0Z"/>
    <path d="M1646.98,1461.02l-4.39-1.38-1.74-7.07c-.79-3.22-1.85-5.53-3.22-8.09l-6.93-12.96-5.04-9.12-6.29-12.7c-2.55,2.96-.05,11.55.21,11.6l3.15.58c-1.03,3.13-.99,6.44.37,8.29l2.63-5.6,1.39,14.23,6.55,2.57.24,8.34c1.05.24,3.57,1.14,3.08,1.68l-2.3,2.52c.53,3.1,3.51,7.72,6.41,10.04l1.03,4.45c1.02,4.41,1.61,7.85,4.6,10.78l1.74,5.14c5.21-10.27-6.66-15.83-1.49-23.32v.02Z"/>
    <path d="M1479.75,1237.64c-2.34,2.73-9.92,1.9-11.85-.14l-2.21-2.34c-.42-.45-1.56,1.17-1.42,1.76l.45,1.89-7.91,1.31-15.98,2.64c5.06,1.88,10.01,1.93,14.62.64,5.51-1.55,8.89-.81,8.57.91l-.69,3.71,4.76-5.13c1.27-1.37,5.6-.55,7.53.25l-.57,5.72c.77.03,2.49-.18,2.57-.77l.61-4.37c-.75-.4,1.13-.06,2.28.37l6.08-.7-.72-2.24c8.16,1.73,15.55,2.27,23.53,1.69l.63-5.07-8.05.52c-7.66.49-15.15.94-22.23-.64h0Z"/>
    <path d="M1428.66,1762.78l-5.39.8.57-4.51,2.95,2.27-1.16-6.68c-1.18-6.77-3.12-12.97-5.81-19.45l-.67-5.92c-.13-1.16-3.84-2.64-4.86-2.3-.75,1.74-1.77,5.36-1.38,7.06l3.61,15.77c1.56-1.59,2.22-2.79,3.42-4.72,1.79-.09.92,4.95-.73,6.64,4.03,8.01.96,16.39,3.75,15.28l2.84-1.13-.53,6.15c-.2,2.29.72,5.27,1.91,6.98l1.3-.59.17-15.64h.01Z"/>
    <path d="M1436.35,1784.85c.63-1.22,3.18-4.24,2.35-5.21l-2.97-3.51-.95-5.59c-.81,1.71-1.32,3.6-2.04,3.78l-2.28.58c.05,1.16.38,2.63-.14,3l-1.64,1.14-.96,1.17.04,8.73c.02,4.42-.36,7.16-1.15,11.83,3-1.49,4.22-4.68,5.57-8.04,5.23,3.8.73,8.59,2.14,13.41.11.39,1.71-.19,1.82-.58l.57-1.97c.19-.65.43-2.25,1.04-2.35l2.99-.46c-2.36-4.29-4.84-11.31-4.39-15.94h0Z"/>
    <path d="M1483.56,1355.7c-7.86-.94-9.3,13.13-11.89,11.99l-3.94-1.73,2.34,7.02-6.12,2.6-3.43,5.01c-2,2.92-2.02,8.12-2.37,11.36,1.11-.82,2.68-2.28,3.12-1.79l2.99,3.31,1.05-7.63c-1.23-1.46-2.87-3.31-2.39-4.13l1.81-3.1c.29-.49,1.1-1.89,1.55-1.56.3.22,1.48,1.42,1.54,1.79l1.73,10.83c1.35-4.07,1.18-7.97,1.46-13.02l2.35,2.28c1.71,1.66,2.18-6.16,5.93-10.79l-.81-6.48c-.28-2.26,9.04-5.49,5.08-5.97h0Z"/>
    <path d="M704.73,1689.97l.6,4.4c.09.69-2.29-.05-3.47-.33l.23,9.27,3.49-2.65c1.04-3.74,2.84-7.39,4.6-10.54-.31-1.78-.86-5.46.32-6.26,5.11-1.64,7.27-12.64,6.11-19.04-2.26,2.72-2.88,5.76-3.29,8.54l-3.38,1.2c-.75.27,1.07,3.06.66,3.74l-2.82,4.72-4.26-10.76c-2,3.71-.63,5.63.56,9.18l-2.38.12c-.61.03-1.41,1.81-1.79,2.39l-2.91,4.44c1.24,3.03,7.48,0,7.7,1.6l.03-.02Z"/>
    <path d="M1370.08,1551.51l1.21,9.56c.13,1,1,2.98,1.47,3.72s3.07.78,3.38-.04l1.35-3.66c.18-.5-.26-2.78-.77-2.72l-3.08.35.58-13.6c.11-2.7-1.86-5.24-3.93-6.51,1.29-1.3,2.86-5.13,1.3-6.75-5.15-5.34,1.12-8.97-3.06-14.72l-5.14-.27,3.37,20.42,3.32,14.21h0Z"/>
    <path d="M1070.22,1623.18l.1,12.12,2.6,1.42c-4.8,6.04-1.74,13.08-4.67,22.59-.66,2.16-1.16,3.85-.72,5.26l2.61,8.23c1.92-1.2,3.72-2.69,4.92-4.48.82-1.22.3-3.35-.45-5.37l-1.86-5c2.63-7.3,3.56-18.6.74-26.8l2.07-3.17-5.34-4.8h0Z"/>
    <path d="M348.45,1749.42l-5.17,11.17-4.36,6.23c-1.05,1.51-2.38,3.59-2.81,4.92l-.87,2.73c-.15.48-1.53-.17-2.73-.63-2.23,2.49-3.79,6.33-4.17,10.09l-5.61,5.42c-1.83,5.08-6.69,8.68-8.09,8.31l-2.76-.73,1.92,7.32c3.1.24,3.86-1.17,5.28-3.27l5.64-8.38,11.51-15.53,10.62-18.3c1.72-2.95,3.16-4.87,1.6-9.35h0Z"/>
    <path d="M1433.11,1242.11l-33.12.68-2.21,3.61c-.43-.97-.78-3.23-1.64-3.32l-4.13-.42c-4.04-.41-7.45,1.1-7.52,6.01l15.14-.67-.39,4.58c1.88-2.03,2.5-4.25,2.35-7.1-.5.14,1.58-.88,1.71-.35l.84,3.27c8.95,1.46,10.97-4.66,12.39-4.43l3.93.65c-.84,6.86,4.66-2.04,7.29-.45,3.9,2.36,10.51,4.08,13.53-1.15-2.61-1.6-5.15-.98-8.19-.91h.02Z"/>
    <path d="M674.49,1243.83c.37.35,1.95-1.37,2.46-1.39l11.86-.56-.05-5.91c-2.45-.73-4.83-.19-7.6,1.09l.31-3.53c-2.79.69-4.72,1.67-6.04,2.55l-9.58.83.86,3.82c1.09.99,2.55,2.68,2.49,3.84-.06,1.16-1.18,3.53-1.78,4.59l-3.66,6.54c1.13,1.14,4.14,1.72,4.79.67,2.84-4.61,3.29-10.14,2.82-15.45l3.12,2.89v.02Z"/>
    <path d="M1073.76,1588.85l6.41-10.54c3.18-5.23.11-11.78,6.86-13.36-2.79-2.13-2.13-5.96.12-8.63l-3.06-1.99c-.95-.61,2.45-3.72,1.57-4.37-.35-.26-1.11-.59-1.45-.32l-1.35,1.04c-1.22.94-2.87,1.8-2.81,2.73l.26,3.73-1.83,11.29c-2.25,6.96-7.72,12.49-4.73,20.41h.01Z"/>
    <path d="M507.14,1459.02l-.77-6.06c-1.12-.6-2.3-2.07-1.65-2.4l1.63-.83c.85,1.64,1.47,2.61,1.78,2.09l1.14-1.89,3.19-5.09c.3-.48-3.78-2.84-5.51-2.7-1.54.12-3.84,3.24-3.98,4.81l-.59,6.74c-3.93,3.74-5.45,8.71-8.13,13.85l-7.9,9.63c-2.05,4.67-4.14,8.22-7.45,12.12.07.25,1.63.76,2.07.38l1.77-1.55c.37-.4.33,3.23-.54,3.26l-3.02.09-5.94,10.34c-3.56,2.7-8.47,9.83-7.09,14.06,2.25-1.72,3.26-3.03,4.72-5.24l6.17-9.29,1.35,2.02c.21.32.47.55.71.32,2.4-2.26-1.67-5.66,1.73-10.75l3.47,2.23c-.87-4.87.58-8.51,5.27-9.93l-2.38-8,2.34,1.52c.24.16,4.45-2.3,7.75-8.7l6.03-11.69,3.82.64v.02Z"/>
    <path d="M401.42,1661.58l-1-4.47c3.16-1.86,5.16-4.2,6.43-7.52l4.18-10.97,3.69-8.27c.39-.87.57-3.04-.11-3.43l-2.37-1.34-1.85,8.99-4.12.86-5.59,13.97c-.72.48-2.78,1.45-2.57,2.17l.8,2.77c.17.61.56,2.47.06,2.82l-2.56,1.82c-.5,1.29.02,5.11.86,6.02,2.1-.89,4.43-2.24,4.16-3.43h0Z"/>
    <path d="M650.44,1190.47c-.58,1.01-.5,4.08-.58,5.38-3.91,6.85-9.08,13-9.53,21.49,3.97-5.1,6.09-10.26,8.59-15.59l10.83-23.18c1.91-4.08,3.83-7.49,2.87-11.92,3.25-1.5,5.05-3.94,5.73-7.54l2.36-12.52-4.59,7.18c.81,4.3.19,6.89-3.37,9.27l-4.6,7.34c.97,6.05-2.01,10.17-4.79,15.03l-2.91,5.07h-.01Z"/>
    <path d="M1657.5,1242.53l-7.5.28-22.64.98,3.92,2.39c.48.29,1.11,1.27,1.58,1.89l2.79-1.39,7.38-.17,19.58-.69,10.9.81,15.64-.5c-.04-.95-.93-3.04-1.7-3l-2.77.15-6.99.37c-3.58.19-6.42-.63-9.81-.75l-10.37-.36h-.01Z"/>
    <path d="M424.54,1647.78c.05,1.23-.07,2.28-.94,3.76l-.08-7.6c0-.51-.65-2.6-.96-2.18-2.73,3.81.11,13.11-5.28,17.28-6.83,5.28-2.94,9.83-4.91,10.58l-2.79,1.07-.61,5.03,6.44-4.72c1.69-1.24,2.49-5.95,3.91-7.56,4.87-5.53,2.16-7.16,6.37-11.68l3.5-9.06,1.61,2.35c.22.32,1.38-.83,1.34-1.22l-.89-8.54-6.69,12.49h-.02Z"/>
    <path d="M1394.22,1670.41l3.77-5.58c-5.36-3.15-2.52-9.31-8.37-15.33l-.77-4.4c-.09-.52-1.02-1.77-1.34-2.2-1.37-1.83-.02,7.46-5.61,12.12l-.64,10.57c2.72-2.18,3.22-5.56,3.47-8.94l.15-2.02c.03-.35,1.05-.41,1.51-.47.35-.04.3,1.23.38,1.64l.58,3.15c.07.37,1.14-.55,1.24-.92l.79-2.91c3.19,1.18,3.03,4.64,3.01,7.88l-.05,10.41c0,1.38,2.05,3.68,3.13,4.19l5.88,2.14-7.13-9.33h0Z"/>
    <path d="M1407.34,1698.5l-3.52,2.55,2.14-5.18-3.55-11.38-.77-2.48c-.09-.3-1.39.76-1.3,1.07l.44,1.58c.3,1.07.23,3.61-.76,3.97-1.17.43-2.73,3.05-1.82,3.28l3.01.75c.6.15,1.91.83,2.48,1.16.54.31-.98,2.1-1.24,2.77-.71,1.81,1.67,5.75,1.76,7.7l.46,9.47,5.66.54c-1.69,3.44-2.27,6.34-.69,8.23l1.76-3.18c.26-.47,1.8.19,2.75.44l-6.79-21.29h-.02Z"/>
    <path d="M1682.11,1521.99l-2.26-4.92c-1.52.84-3.47,3.07-3.21,4.32.62,2.96,6.22,4.94,4.21,7.76-.66.93-2.74,2.88-2.97,2.95-1.25-3.39-1.75-4.52-3.08-6.9l-6.16-11.03c-1.27,11.35,10.17,18.43,8.63,28.78,6.77-1.84,2.09-7.35,7.05-14.77l.67-1.04-2.89-5.13v-.02Z"/>
    <polygon points="1685 1527.13 1684.33 1528.17 1684.83 1528.55 1685.78 1528.04 1685 1527.13"/>
    <path class="cls-1" d="M-4.1,1748.24l-1.9-5.69c60.61-20.25,97.02-78.41,132.22-134.66,1.95-3.11,3.89-6.21,5.82-9.29,77.23-122.83,173.06-234.67,265.73-342.81l104.15-121.55-.42-.74.92-1.5c.56-.91.76-1.24,2.56-1.37v-.07l8-.02h20.34c12.04,0,27.57,0,45.94.04,42.03.06,107.64.24,181.56.73,130.5.87,312.27,2.89,437.12,7.65,159.06,6.05,326.43,8.6,526.74,8.04h1.4l.9,1.07c131.29,155.81,267.06,316.93,425.51,464.3,2.26,2.1,8.25,7.68,6.24,14.21-.73,2.37-2.79,4.02-5.5,4.43-3,.45-6.07-.69-7.47-2.76-1.09-1.61-1.11-3.64-.07-5.43l5.18,3.03c.13-.27.01-.86-.23-1.06.15.13.83.39,1.64.29.44-.05.67-.2.71-.24.63-2.03-.83-4.58-4.58-8.07-158.36-147.28-293.97-308.13-425.11-463.76-199.78.56-366.82-2-525.59-8.04-228.21-8.69-651.04-8.45-689.89-8.39l-105.52,123.14c-92.53,107.98-188.21,219.64-265.21,342.1-1.93,3.08-3.87,6.17-5.82,9.28-35.77,57.14-72.76,116.23-135.41,137.16l.04-.02Z"/>
  </g>
  <g id="Afrogirl">
    <path d="M1329.87,1302.17c.68.22,2.18-2,2.3-2.72l1.44-9.08-2.05-.79c-1.08.79-2.7,1.85-3.02,1.27l-1.62-2.94c-.37-.66-.02-2.69.55-3.22.56-.53,2.57-.54,3,.1l1.55,2.34c.22.34,1.67.16,1.75-.27l.46-2.27,1.97-9.81,2.99.29c.65.06,1.34-1.66,1.62-2.35l2.91-7.25c.24.18-1.12-.83-2.4-1.79-2.56,2.33-3,5.92-2.74,9.27-1.68.21-4.45.57-5.31,1.38-.71.67-.38,2.66-.16,4.63l-18.01-2.22-.32-6.93c-.26.03-.57.06-.88.1-3.79-.05-7.98-2.72-7.6-7.04l-4.04,2.7c-.65.43-1.51-2.71-1.51-3.59-5.56-3.34-8.69-9.3-7.69-16.02,1.03-.73,1.8-1.28,1.34-1.48l-2.46-1.08.35-1.98,1.25-1.36c-10.16-4.68-2.61-14.45-8.52-18.56l-1.23-8.66c-.08-.54,2.05-2.04,2.29-1.56l.94,1.87c.39.27,1.37.96,1.58,1.11l.76-2.51c.26-.85.55-3.61.29-4.51-1.27-2.75-2.88-7.38-3.61-10.75-.94,1.14-2.76,5.78-1.28,7.17,1.24,1.15,3,3.12,2.58,4.13l-1.08,2.63c-.13.33-1.24-1.33-1.41-1.64l-3.35-6.1-4.08-14.39c-.72-2.55-.8-6.11-.76-8.01.86-.87,1.4-1.41,1.63-1.65-4.21-.62-5.02-3.39-4.44-6.03,1.58-7.2-2.98-7.11-3.79-13.48l-2.16-.83c-.11-.15-.81-2.05-.73-2.27l2.03-5.65-1.58-2.03,11.51-.49c1.14,3.94,3.05,4.72,5.88,5.36l1.58.35,1.7.66c.33.13.76-1.15.51-1.4l-1.34-1.33-3.58-2.48-1.79-1.82c-.2-.2.14-.59.42-.77,1.38.64,4.01,2.32,4.89,1.47l3.5-3.39c-3.94-3.31-8.25-1.09-11.78-.03-2.17-.87-5.21-2.06-8.29.54l-2.02-1.04c-.9-2.34-3.12-7.45-5.51-7.98l-4.06-.9c-.81-.18-.44-2.5-.14-4.19l-2.29-2.42-7.17,2.62c-5.76,2.11-10.52,4.76-15.08,9.11-3.62,3.45-11.08,7.65-14.36,7.77l-.59-7.09-.17-2.12c-.04-.43-1.17-.09-2.58.28-1.28-2.57-2.52-6.33-2.56-9.63l-.13-11,.18-9.19.59-23.03c.05-2.01.44-3.94.88-5.18.44-.1.8-.19,1.09-.26-1.49-1.34-1.81-1.44-1.92-1.91-.11-.47.51-2.2.78-2.61,2.58-3.85,1.32-8.59,1.34-12.85l.06-11.11.22-13.41.53-25.56c.09-4.43.42-7.07-.32-12.58l13.01-5.46c1.95-.82,3.05-.88,5.03-1.39l9.04-2.32c2.4-.62,4.58-2.56,5.73-4.43l9.74-2.14c.94-.21,2.85-1.84,2.59-2.74-.21-.71-1.46-1.54-2.14-1.29-1.66.72-5.37,3.31-6.29-1.06l13.89-3.2c.54-.12,2.95.76,2.66,1.12l-1.19,1.49-1.15,1.44c-.27.34,2.08.9,2.49.76l7.27-2.36,8.04-2.6,8.93-4.53c3.15.43,5.05.16,7.96-1,8.5-3.38,17.51,0,25.39-3.18.82-2.17,1.64-3.97,2.6-4.47,1.9-.99,3.48,6.47,4.77,5.01l1.83-2.07c.58-.66,2.32-2.14,3.09-1.72l2.65,1.44,9-4.47c.62-.31,1.34-2.08.83-2.37-3.46-1.97-3.11,2.14-6.99.92-.54-.17-2.3-1.93-1.79-2.13l3.17-1.26c0-3.3-1.53-7.48-4.5-10.76-3.33,3.89,4.67,8.99-.56,10.95l-4.76-12.99c-.8-2.19,1.61-5.67,3.38-6.01l-3.04-5.57-4.52-6.76c-.3-.45-2.27-1.01-2.77-1.2-.5-.2.21-1.9.73-2.2l8.57-4.95,13.77-8.88-3.32-1.59c-.33-.16.44-1.19.66-1.2,1.18.21,2.74.43,2.94-.18l.69-2.17c.11-.34,1.85,1.19,1.8,1.54l-1.06,7.25,4.78.6c.88-1.44,2.04-1.76,1.3.3-.75,3.2,6.48,8.43,11.4,6.6,7.78-2.9,2.3-9.51,3.86-20.51.07-.46.41-2.09.03-1.88l-1.71.96-1.41,1.17c-1.05.88-1.07-6.29-6.31-10.94-2.67-2.37-5.13-3.55-8.19-2.96-3.52.68-4.4,3.59-4.71,7.31l-.7,8.4c-2.12,1.06-4.91,3.99-6.36,6.09-5.24,1.81-11.04,4.6-13.85,9.33-1.82.48-4.39,1.27-6.41,2.57l-8.4,5.4c-5.62,3.61-10.46,6.38-15.24,11.29-1.65,1.7-5.89,4.03-8.44,5.05-1.67.67-6.25.41-7.27,1.83-1.65,2.42-4.04,4.6-6.91,5.14-3.54.66-3.84,2.76-6.4,4.85l-8.02,6.54c-1.09-.11-3.5-.77-3.79,0l-1.17,3.18c-8.09,3.42-15.26,7.5-22.08,13.22l-11.53,2.36c.46,1.37,1.6,3.86.88,4.38l-2.72,1.98c-2.35,1.71-6.45,2.78-8.88,1.36l-1.91-50.3c-.15-3.9.44-6.19,3.27-9.61l-5.05-3.08,2.5-2.25c3.94,1.7,6.82,1.71,10.44.05l6.81-3.12c.57-.26,2.5.8,2.02,1.19l-1.6,1.32-2.4,1.98c-.56.46,2.49,1.75,3.29,1.86,2.08.29,5.22-.86,6.33-3.16-.47-.85-.96-1.71-1.13-2.02-2.13,1.48-2.2,1.89-2.33,1.38l-.59-2.25c-.22-.83-.85-3.39,0-3.43.67-.03,2.79-.04,3.4.13l3.53.99c1.3.36-1.78,3.37,1,6.18.54.54,2.68-1.66,2.51-2.39l-1.64-6.97,5.06-6.35,8.16-12.69c.51-.79,3-1.92,3.81-1.53l3.71,1.8-.55-5.04c2.93-2.15,4.76-4.12,5.9-6.79-3.8,1.57-5.7,2.46-9.16,2.57l3.07-9.38,2.89-5.74,2.62,4.5c-.84.67-2.31,1.95-1.86,2.21l2.27,1.35c.88.52,3.36,2.15,4.19,1.61l4.02-2.62-3.62-3.57c-12.92-5.3-6.94-15.19-9.11-21.88l-5.66-17.45-4.54-11.5c-.88-2.23-5.09-3.71-1.43-7.07l6.07,7.51c2.01,2.49,4.09,5.09,6.59,7.5l1.14,1.96c.62,1.07,3.54-.45,7.9,2.28.72.45.62,1.61-.43,3.43,1.03,3.34,6.99,7.46,12,8.6-.08.26-.45,2.44.28,2.57l3.92.67-.49,1.65-.67,3.06c-.15.69,1.63,1.74,2.32,2.04l6.12,2.7c.69.31,3-2.28,2.44-2.8l-2.57-2.36-2.26-1.58c-.51-.36-1.83.89-2.94,1.79l.34-1.65c-.44-1.96-1.69-4.69-3.21-6.06l-8.53-7.71-10.99-10-6.59-6.36-16.75-13.77,4.42-3.4-13.1-11.57-4.24-5.39-9.36-10-18.06-16.86c-1.39-1.3-4.06-2.22-4.4-4.6.09-.75-3.61-.77-3.51.09l.43,3.82c.09.83,1.74,3.34,2.45,2.92l3.16-1.91,2.57,5.21c1.1.45,3.21.93,3.46,1.9l1.21,4.64c.27.6.96-.45,1.64-2.39,2.33,4,5.13,7.88,8.56,11.78l1.45,6.56,4.02-2.6c.62-.4,1.68,2.59,1.17,2.58-1.88.57-2.68,3.98-1.36,5.36.81.84,2.31.91,4.12.68l.98,2.57,3.98-3.46-2.35,7.83-18.05-2.99-6.23-6.28-20.38-17.74c-4.7-4.09-8.11-9.48-16.03-9.23,2.07,2.77,4.44,5.18,7.03,7.39l6.57,5.63,5.99,5.83,6.29,5.78c3.84,3.52,7.21,7.31,12.16,10.43-6.72,1.97-12.96,5.42-18.54,9.77l-8.42-7.48-8.88-8.06-10.31-8.7-17.44-14.74c-1.14-.96-2.94-1.53-4.65-1.76-1.17-1.62-3.41-5.8-5.18-7.09l-12.77-9.33-13.4-11.54,3.72-6.46-6.2,4.11c-1.39.92-5.15-1.75-6.59-2.78l-9.42-6.71-9.56-6.51-9.97-6.34c-2.2,2.18-1.95,2.88-.9,3.96l5.6,1.15c.22.62,1.33,3.01,1.93,3.75,7.07,1.6,6.8,5.22,12.35,8.9l6.27,4.16,9.62,8.42c.35.31,2.56.12,2.73-.31l1.05-2.68,4.36,8.48c6.14.57,5.74,4.27,12.67,9.19l8.14,5.77,7.15,5.07,5.27,5.43c1.17,3.78,4.6,5.62,8.71,5.35,2.04,4.48,4.9,6.89,8.17,9.82l12.27,10.97,6.53,7.42c1.4,1.59-2.88,9.43-7.85,11.37l-9.88,26.16-5.9,23.16c-2.19,8.57,4.74,18.39.56,21.67-5.84-5.59-12.48-7.25-18.66-10.92l-25.7-15.24-24.06-14.89c-2.87-1.78-4.52-2.78-7.57-4.59l-22.61-13.39c-2.32-1.38-6.31-3.97-7.56-6.03l-.8-11.35,18.7,12.75c4.86.05,9.6,4.21,8.53,9.86.12.23,1.63,1.61,1.63,1.14l-.02-2.37c-.01-1.35.95-3.67,1.86-5.06l2.45,4.34,11.3,6.82,6.11,3.96,10.92,7.08,9.69,5.2,9.37,5.68,8.42,4.42,9.04,5.27c1.28.75,4.13.65,6.18-.63l-16.95-10.92-11.31-5.54-23.77-14.35-2.35.49c-.46.09-.55-1.54-.6-2.57l-23.33-13.68-1.29-9.49-2.37,7.73-23.2-15.79-.71-17.84c-.24-6.18.18-12.29,1.74-18.33,2.6,6.61,9.18,4.8,11.08,13.14.73,3.22-.87,8.64-4.18,9.5l-6.77,1.75c3.41,2.52,4.21,3.78,5.64,8.34l2.62-2.34c2.35,6.45,10.57.29,12.07,9.35l9.05,1.54c1.67,1.44,4.32,3.2,6.35,4.51l20.14,13,12.16,6.82,12.58,8.5,10.59,5.48c3.28,1.7,5.63,6.35,10.69,2.73-2.25-2.64-4.64-4.57-7.52-6.25l-17.66-10.31-16.93-10.06-24.45-14.36-9.67-5.52-8.27-4.93c.13-3.33.06-4.87-.48-7.23l-2.01,5.96c-2.36-.04-6.3-3.63-5.36-5.49l3.63-7.1,1.53,2.23c.3.44,1.94-1.19,1.6-1.6l-1.56-1.88-2.47-2.97c-.42-.5,1.15-2.3,1.26-2.09l5.94,5.34c5.88,5.28,8.85.57,10.4,7.17,2.81.23,4.59.66,6.14,2.26,4.29,4.44,10.21,7.17,15.68,9.11l1.24,3.22c.23.61,2.08.09,2.69.11,1.92,2.3,5.53,6.09,8.23,5.96l3.36-.16c-1.53.07,7.59,9.6,16.69,13.65,3.09,4.22,7.56,6.49,12.33,7.71l3.56,4.69c2.36,3.11,7.51,4.17,10.12.81l-14.18-11.76-7.64-7.33-3.76,2.51-17.16-12.65-25.57-17.44-19.17-13.13c-.73-.5-1.18-2.94-1.79-2.94l-3.23-.03-10.08-7.24-8.37-5.09c-1.8-1.1-3.62-2.65-3.87-4.62l-2.2-17.21c-4.49,2.55-.26,5.53-.38,7.19l-.71,9.51,2.02,17.15-2.71,3.44c-.58.74,3.1,1.91,3.48,1.78-1.07,4.07-.32,7.34.04,11.69l.74,8.94.24,6.94c.1,2.93-.51,5.25-1.7,8.6l1.94,11.01,2.98-3.53c.96,1.79,1.5,3.05,2.2,3.79.69.73,3.89.49,4.8,1.03l7.23,4.3,9.65,6.54c2.66,1.8,5.9,3.49,8.96,4.56.47.78,1.5,3.46,2.37,3.38l4.68-.4-1.42,9.09c1.94-.55,2.8-2.01,3.36-5.72,4.97,2.06,9.96,5.02,14.67,8.02l9.3,5.94,10.4,6.75,6.9,4.14,9.87,5.7c2.88,1.66,3.5,2.91,7.3,3.16l7.95,5.59c6.04-.5,3.23,4.91,9.11,9.22-4.24.22-9.8.83-13.59.24l-13.09-2.02-.16-2.67-19.04-11.57-12.22-6.94-14.65-9.06-7.7-4.69-30.96-18.63c-.89-5.98-1.66-10.07-4.5-15.93l-2.98,9.76c2.43,1.95,3.27,2.59,4.08,4.26.46.95-.47,2.54-1.38,4.27,2.92,1.98,3.35,7.08,2.47,10.11-.25.85,1.46,2.74,1.95,2.17l1.63-1.88c.37-.43-.87-1.59-1.11-2.1l-1.41-2.99c-.31-.67,2.07-2.64,2.43-1.99l1.84,3.2c.35.6,2.12.03,2.92-.02l21.79,12.02,10.31,6.72c3.2,2.09,5.61,3.78,6.89,6.85.41-.66,1.34-2.17,1.74-1.88l1.99,1.45,27.69,16.94c-2.8,1.83-2.11,2.86.18,2.37l10.95,4.35-1.26,3.82c-.22.67,1.82,1.6,1.74,1.4l1.27-6.45c5.5,1.37,10.42,2.75,15.38,2.16,4.82-.57,8.86.12,12.84,2.39.77.44,3.42.82,2.94,1.37-3.74,4.4-10.54,4.05-18.11,3.54-.68-.05-2.75,1.45-2.22,1.8.54.35,2.25,1.32,2.89,1.32l9.39.02c5.77,0,11.53-1.25,17.25.18,3.16,2.25,3.46,8.2,3.99,11.77,1.08,7.23,1.51,13.12,1.11,20.54l2.54-3.81c5.01.93,3.4,5.15,3.74,8.47l3.15,30.18c-2.97,3.15-5.83,8.09-9.34,8.99l-10.8,2.77c-5.68,1.46-11.32,2.54-16.92,2.74-1.48,1.24-3.52,2.1-5.53,2.65l-11,3.03-9.92,2.44c-4.16,1.02-9.48,3.08-13.47,5.18-2.68,1.42-4.32,5.43-8.24,4.14l-.88,3.56c-.16.65-2.68-.82-3.08-.28-.67.88-2.23,3.29-3.02,2.79l-3.21-2.01-3.72,4.16-7.01,4.12,4.03,2.65c1.81,1.19-4.93,3.59-4.97,5.02l-.12,3.57-4.86,4.84c-3.65,2.72-5.04,5.41-7.46,9.02l-3.86,5.76c-11.45.44-.51,9.75-4.35,16.08-2.96,4.88-10.16,6.35-8.98,7.97l1.98,2.72c4.38,6.02,8.87,1.04,11.97,2.28.36.14-.25,1.18-.55,1.42l-1.47,1.2c.85.62,2.48,1.45,3.03.93l2.42-2.28,3.16,5.2c.29-.06,2.58-.74,2.51-.06l-.48,4.28c-3.28,1.41-8.17,3.24-10.72,5.69-8.16,7.84-15.15,7.67-14.79,9.99l.48,3.09c-2.15.02-6.41.89-8.04,2.38l-6.72,6.14c1.1,1.79,4.01,4,5.49,3.59l7.01-5.46c6.86-5.34,12.99-6.54,17.62-11.23,3.66-3.71,7.64-6,12.6-4.14l2.42-2.4c.34-.34-1.64-1.56-1.53-2l2.02-6.6,8.23.57c1.45,2.04,3.19,3.36,6.15,3.96l-.86,4.03,7.82,2.47c2.21,3.6,5.88,6.22,10.11,3.37,1.5-1.01-.55-5.16-2.82-5.81-1.23-11.63.6-23.14,2.7-34.75l.93-11.8,1.35-18.16c.45-6.05,4.09-12.24,8.2-16.36l7.82-2.74-.93-1.06c-1.27.13-3.35-.24-5.63-1.46l18.53-7.33,14.34-3.81c2.88-.77,5.27-2.42,8.99-1.52-10.08,4.78-20.05,9.04-31.43,11.36-1.95.4-3.34,1.03-4.07,2.1l.85,1.17c5.34-1.11,11.43-1.95,16.98-4.58l26.32-12.48,1.82,1.76c.38.36,2.67-5.57,10.39-2.34l-.74,16.4-1.65,20.02.39,10.65-1.35,15.32-1.32,17.11-1.57,22.9c-.2,2.89.3,4.9,2.91,6.46l-.07,27.17c-2.53,3.27-3.68,6.92-4.4,10.75l-9.98-.74c-1.6,3.62.92,5.33,3.19,5.73,1.67.3,4.96-1.06,6.45-2.2.45-.39,1.77,1.93,1.22,2.3l-2.53,1.73-.94,11.29-3.42,1.49c-.75.33-.06,3.4-.39,4.15-3.09,7.09-7.95,14.06-12.37,20.31l-6.72,9.51-1.56,3.4c-2.6,2.28-5.35,4.88-7.3,7.56l-9.01,12.34-5.96,9.91c-1.86,3.09-4.69,8.35-8.41,8.99-6.18,1.06-7.94,4.88-12.45,8.29l-11.29,8.53,1.4,4.86-5.28.47c-.83.07-1.41,2.16-1.88,2.96l-19.35,22.65-3.78,6.04c-3.96,6.32-7.14,14.92-14.65,20.39l-2.44,12.5-2.18,12.35,2.68-2.15c.41-.33.97,2.08.98,2.62l.21,6.87,6.58,1.26c5.76-11.07,3.74-28.64,7.69-28.08l12.05,1.72c-.68,5.01-.17,7.8,2.5,11.13l1.22,10.48c.26,2.2.79,5.58,2.05,6.71l2.8,2.54c.59.53,3.09-.03,4.94-2.06.04-.05,2.16,3.46,3.39,2.39,5.02-4.37,12.57-3.21,16.06-7.24l5.78-6.67-1.18-11.03c-1.52-14.26-12.86-7.44-13.44-20.66l-.32-7.2c2.54-4.53,1.76-9.62.51-14.9l2.06-10.55,3.62-4.26c.55-.9,1.55-3.94,2.61-3.83l4.15.41c.16-5.66,3.41-9.77,7.9-11.51.52-2.44,1.29-3.62,2.4-5.25l6.78-9.97,5.11-5.98c.65-.5,2.61-1.12,2.69-1.92l.35-3.41c.13-1.27,2.37-2.87,3.49-4.21l8.98-10.87,5.94-5.38c1.92-1.74,4.16-5.2,5.62-7.16,4.69-4.29,9.06-8.33,12.59-13.49l8.54-12.48c2.63-3.84,7.23-6.72,7.97-11.83l8.28-3.65,1.98,5.99,1.47-2.03-1.85-6.32,27.41-18.67c.9,1.62,2.02,3.68,2.89,3.44l3.4-.92,2.99,10.95,7.99,23.95c3.24,9.7,6.28,20.12,4.31,30.18l2.24.03c2.37.03-1.29,2.33-.82,13.8l.3,7.47-6.68,1.73,3.74,5.66,3.24,5.34-5.57,5.03-6.86,12.88c-2.8,5.25-1.41,12.09-.49,17.15l2.18,11.87c.46,2.54,1.14,5.46,2.46,6.92,1.96,2.17-1.42,2.62,2.32,10.99.66,1.47.75,4.29,1.05,7.04l6.93-.74-1.65-14.8c9.31-2.48,1.35-7.83,1.1-21.1l-.16-1.52c-.03-.33,1.72-1.25,2.04-1.19l8.81,1.75,9.01,1.36.71,10.39c.18,2.64,1.68,8.53,4.99,8.07l8.01-1.1c.85-.12,2.89-2.39,3.55-1.9l2.55,1.89c1.33.99,4.5,2.06,6.01,1.58,3.35-1.08,3.47-5.78,4.38-5.49l1.69.55,3.13,1.02.09-.04ZM1364.53,907.89c.21-.57,2.2-.99,2.39-.41l1.06,3.27,2.07-3.66c2.35,1.16,3.59,5.15,1.12,8.7l-6.59-5.05c-.32-.25-.18-2.47-.04-2.85h-.01ZM1092.8,1088.13c-4.48-2.07-7.02-2.31-10.72-1.65l3.73,3.44-6.78-1.11c1.59-3.34,2.67-4.75,4.67-6.21l6.59-4.81c1.43-1.05,4.87,2.34,4.93,4.42.05,1.77-1.45,5.25-2.42,5.92ZM1113.49,1097.55l-8.07-3.32-3.03-1.42c-.76-.36.91-2.89,1.53-3.42l2.5,2.97c.66.78,3.95-.16,4.54-.69,1.66-4.92,2.63-10.83,8-14.42l-5.46,20.31h-.01ZM1102.54,1298.44l2.66.38c.65.09,1.13-1.12,2.53-2.94l.04,8.79c-3.53.45-5.27-3.43-5.22-6.23h-.01ZM1121.94,1340.25c1.23,2.07,3.95,5.71,3.62,8.03-.47.95-4.56,1.65-4.94.67l-1.66-4.24c-1.35-3.45-1.93-9.1-.06-11.58,4.32.49,2.15,5.61,3.04,7.11h0ZM1209.4,917.39l-3.58-2.97c-.55-.45-7.66,4.95-15.27-.9-4.08-3.14-7.88-4.77-12.92-6.24l-4.49-8.48c-7.25-13.72-6.52-29.25-2.1-43.94,5.21-17.34,10.85-30.5,25.87-41.17,5.66-4.02,10.87-7.62,17.89-9.8,2.98.59,6.82,3.92,9.27,6.38l3.46-3.21-2.01-3.9c6.81.88,12.64,2.12,18.28,4.99l5.87,7.06-2.36,4.24c2.83,3.02,6.75,6.36,7.67,10.27l4.2,17.7c.98,10.77-2.71,21.34-3.84,31.76-.84,7.7-1.32,13.58-6.2,19.77-1.34,1.7-3.01,3.71-5,4.86l-16.01,9.28c-4.86,2.82-12.47,3.08-18.74,4.3h0ZM1228.5,1155.98c-1.69,1.58-4.6,2.19-6.96,1.11,4.1-4.09,7.58-8.74,14.86-8.51l-7.89,7.39h-.01Z"/>
    <path class="cls-3" d="M1189.7,926.79c-22.33-9.09-32.89-36.92-27.83-60.49,5.06-23.58,22.47-42.82,42.29-56.55,10.33-7.16,22.19-13.32,34.75-12.83s25.47,9.75,26.1,22.31c1.9,37.62-10.95,75.79-35.2,104.61,39.25,15.42,84.75-12.65,103.52-50.41s17.77-81.92,16.37-124.06c-.29-8.71-.64-17.68-4.23-25.63-8.4-18.58-31.01-25.37-51.13-28.69-102.96-17-329.11,1.68-235.8,168.08,25.3,45.11,80.06,71.7,131.16,63.67h0Z"/>
  </g>
  <g id="Afroman">
    <path d="M838.64,1379.87c-5.19-2.89-.3-8.16-3.36-14.4,1.25-10.06,1.08-19.3-.71-29.16-1.89-10.42.76-14.45-14.85-24.56l-5.2-6.84c1.5-2.1,2.48-4.52,2.7-6.81l.32-3.27c.04-.45-1.8-.47-2.33-.38l-.96,6.91-.56,2.12c-.66,2.47-1.93-6.34-3.87-5.36l-4.18,2.11-15.78-12.59-12.56-8.96,3.58-10.81c-4.41,2.66-4.64,5.59-5.59,10.26-1.67-.2-5.13-1.17-6.19-2.51-.94-1.19-1.13-4.46-1.49-7.02l-5.45.6c-4.52-7.25-2.62-10.7-4.02-15.29l-1.75-5.74c-2.15-7.05-3.54-14.82-3.65-22.35l-.15-10.73-.56-6.42,2.61.14c.94-3.96,1.58-5.65,2.93-8.8l1.14-2.66c.16-.37,1.23.2,1.52.47l1.39,1.27c2.17-2.24,5.74-2.12,8.29-.2,5.87-1.45,12.01-.18,17.15,2.35,2.6-1.6,5.92-2.47,9.09-1.66l37.68-.09,1.38-1.57c.23-.26-1.08-1.67-1.43-1.65l-7.74.4-19.01.32-9.11-.65-9.81.07-13.84-.54-8.95-.76h-10.34l1.49,4.7c-1.46-.56-2.78-1.1-2.82-1.76l-.12-2.24-2.75-15.18-1.98-15.06-1.09-14.93c-.33-4.51-.23-7.36-.79-11.49l-2.4-17.8c-.49-3.67-1.64-6.21-2.37-9.78l-3.1-15.18-3.31-25.8-.34-10.49.03-6.78c0-.43-.77-1.51-1.14-1.57l-1.15-.18c1.06-1.37,2.51-3.52,1.76-4.35-.85-.95-2.52-2.95-1.75-3.22l2.83-.97,1.89-.65c.39-.13.28,1.47.32,1.92l.38,3.86c.08.77,3.1.89,2.65.64-.57-3.97-.56-6.57-.19-10.02-1.42-.35-4.05-1.7-4.18-2.91-.49-4.57,7.62-2.98,10.55-10.95l2.61,3.81c2.6,3.79,3.6,7.93,4.84,12.34l2.58,9.22,2.95,2.59c2.86,7.72,9.3,15.9,15.53,21.95l4.78,7.82c3.2,2.77,4.18,5.35,6.35,9.04l1.65,2.8c.3.5,2.9-.97,2.79-1.6l-3.22-18.25-2.08-13.36-6.92-41.84c-.56-3.4-.45-6.15-1.88-9.31-.71-1.56-1.13-4.62-.72-5.94,3.78-1.64,6.22-5.08,5.29-8.94l-3.64-15.02-5.25-14.49c-2.9-7.99-12.57-12.18-21.49-7.21-4.65,2.59-8.79,4.86-9.24,11.31l-.78,11.08c-.27,3.85,1.2,6.32-1.49,9.84l1.5,9.99,4.04,6.54-10.26,1.43-.24-6.7-9.52,1.22-.12-7.79c-3.44-3.72-2.93-8.6-.23-12.23-1.26-7.03-1.5-14.06-.12-20.86l4.18-20.58c.18-.88,1.03-2.65,1.41-3.26.38-.6,3.07.87,3.62.42,2.62-2.16,9.7-3.36,12.88-4.5,3.56-3.71,6.85-6.71,11.5-9.18,4.56-2.43,16.64-12.42,20.64-17.85,4.14-5.62,6.92-13.89,6.75-20.97l-.31-13.24c2.45,2.08,4.16,3.96,6.1,4.72,3.53,1.38,6.12,5.02,9.1,7.45l6.82,5.57c1-.27,3.49-.71,3.35-.14l-.71,2.87c-12.45,10.59-25.62,19.43-40.53,26.35-1.05,1.04-2.05,2.68-1.38,3.39.53.57,3.33,1.64,3.96,1.26l9.73-5.86,16.1-9.21,15.52-10.47,6.95-1.24.04-3.63c0-.63,2.74-.89,3.28-1.41l11.16-10.62c5.39,2.16,9.61.29,11.78-4.36l4.5-9.63c1.47-3.14,2.88-5.94,3.68-9.24l3.14-12.93c1.03-4.23,2.4-7.96,3.03-12.81l.86-6.64.44-4.67.37-25.63-.95-26.07c-.1-2.66,0-4.32,1.08-7.84l-5.13-3.81c4.26-1.84,4.64-6.78,2.26-9.97l3.84-2.66c-1.82-1.35-1.88-1.3-2.11-1.6l-1.94-2.6-1.57,12.16c-2.25-2.35-2.52-4.76-3.76-5.07l-4.9-1.22-4.94-5.13-9.8-10.15-7.2-7.4c-.04-.66.04-2.16-.45-2.59l-1.8-1.61-5.94-5.04-8.57-6.54c-1.25-.95-2.98-3.75-4.39-4.24-1.97-.68-3.45-.63-5.63,1.51l6.34,2.37,3.77,7.92c8.32-2.4,8.72,10.39,10.57,8.16l1.46-1.76c.03,4.95,2.02,6.27,5.54,8.75,4.77,3.37,8.22,9.31,12.36,13.14l6.97,6.44c2,1.85,4.29,3.03,7.16,3.82l.52,6.86,3.41,9.11-3.51-.92c-.54-.14-1.6,1.61-1.48,1.65,2.26.32,4.34,2.45,4.23,4.71l-.81,15.6-.07,10.06-1.05,29.25c-6.11,10.75-2.86,24.1-15.97,37.19l-7.24,7.23-13.34-14.64-16.56-18.36-23.19-23.78-11.4-11.8-7.61-7.91c-.43-.44-2.54.55-2.19,1.04l1.28,1.82c2.43,3.46,5.46,7.2,8.6,10.41l27.53,28.16,5.55,5.41,6.88,8.29,6.62,7.27,5.58,6.4,6.19,7.09c1.43,1.64.57,5.38-1.05,6.26l.42.55,5.97-3.2c-2.65,6.78-8.27,10.36-14.7,12.59l8.46-8.6-.91-.94-11.57,9.06c-1.3-2.12-2.42-2.97-4.19-4.52l-4.7-4.09-17.04-12.98c-4.4-3.35-5.91-7.96-7.22-12.94l-2.72-10.31c-.51-1.94-5.54-2.57-5.95-.28,2.45,2.65,4.44,7.17,4.42,10.35-.73,1.06-2.8,3.29-2.25,4.24l2.08,3.62c4.08,7.09,6.6,16.44,3.93,24.63l-2.56,7.87c-.14.43-.84,1.28-1.14,1.52-.29.24-1.62-.19-1.46-.54l.93-2.07c1.2-10.54.36-21.15-2.66-31.61l-.88-8.4-4.45-6.62c-2.8-4.16-2.12-6.73-5.72-12.3-.36-.56,1.37-2.12,2.26-2.64l4.23,7.46c-.43-3.23-.15-5.63.87-8.49.98-2.75-3.03-6.46-5.97-6.09l-3.67-4.39,2.53-3.32c-2.04-3.57-5.53-3.61-9.27-4.55-3.92-.98-8.28-3.63-12.15-5.57-5.52-2.77-12.14-4.36-15.59-9.98-1.27-2.07-3.11-4.98-4.62-5.96l-1.16.59.1.11.03.03-.03-.03-.1-.11c-.16,1.49-.23,3.67.07,5.12.21,1.03,2.71,1.08,4.2.77l.85,6.45c-5.76-4.84-9.21-3.38-13.89-1.45l-6.67,1.01-8.85-8.49-5.38-5.83-15.68-17.91c.22,2.61,1.11,6.07,2.18,7.31l6,6.99c3.36,3.91,6.46,7.57,10.46,10.81l4.43,6c.18.24,1.47,1.31,1.44,1.24-.02-.04-.95.6-1.49.97-2.1,2.32-5.17,3.07-8.46,3.14-2.12,2.36-5.27,4.69-8.19,4.3-2.58-.35-4.61-2.94-6.69-4.84l-6.87-6.26-9.27-7.49-7.59-7.61.18,7.43c2.07-.2,4.11-.4,3.59-.35l4.02,5.32c2.1,2.79,4.83,5.79,8.24,6.64l2.22,2.89c.38.49,1.75.22,2.4.26l7.01,10.56-7.48,3.64c-.38,4.31-1.33,6.6-3.33,10.29l-9.43-6.49c1.05,3.62,2.82,6.37,4.83,8.98-.34.68-.09,3.99.85,3.9l7.73-.75-2.78-4.97,7.16-9.27c3.68-4.76,8.82-8.49,13.57-11.61,4.25-3.58,9.26-5.32,14.56-4.42,4.55-2.36,9.21-2.71,14.42-2.5,7.21-.27,11.08.28,16.22,4.54,2.54,2.11,5.29,4.19,6.91,7.43.47.95,2.92.09,3.46-1.13.42-.94-1.19-2.74-2-3.38l-1.59-1.26c-.28-.22.87-1.51,1.17-1.32l6.64,4.05c3.6,2.2,6.11,5.07,7.67,8.98l1.01,2.52c.21.52,1.05-1.02,1.47-2.06-.02-1.9.69-1.87,1.21-.25l.31,6.59c.86.59,2.01,1.46,1.58,1.55l-2.03.39-1.6.31c-2.72,6.44,1.73,10.89,4,16.02l8.29,18.73c-1.41,2.83-2.4,6.81-.68,9.77,2.98,5.14.25,10.3-.39,15.3l-.95,7.38c-.51,3.97-.93,7.81-4.97,10.47l-15,9.83c-8.24,7.49-19,10.69-29.9,8.6l-2.31-1.48c-.35-.22-.91,1.39-.74,1.76l.86,1.8,5.53,1.93-3.97,1.15c-.78.23-1.39,1.88-1.55,2.24l-6.66-3.59c-2.04,2.37,1.49,4.11,1.56,5.31l1.62,29.7c.28,5.23.75,9.01,2.07,14.19.64,2.49.61,7.48.59,10.66l-.06,8.84c0,.62-.74,1.95-1.29,1.92l-1.98-.09c-4.81-.21-9.91-.15-14.59-1.53-3.53-1.05-7.92-1.31-10.34.98-.03,5.93-1.37,10.76-3.32,16.21l-3.89,10.87c-2.78,4.27-3.02,7.01-4.74,11.92l-4.28,12.22-8.18,19c-.93,2.15-2.35,4.91-2.1,6.78.21,1.52,2.36,4.73,3.9,4.77,1.45.03,4.33-2.4,5.59-3.19,1.65.05,5.47.7,7.02.06,3.25-1.34,8.41-3.31,10.54-5.25l8.13-7.41,6.33-7.1,7.74-6.77,6.44-4.79.66,5.89c8.21,2.51,10.17,9.16,11.03,16.6l2.3,19.93.36,6.6.42,6.7.95,11.33,2.14,16.3,2.49,13.29c.44,2.38,1.62,4.69,3.64,6.61,1.29,1.23-.69,4.81-1.16,6.35l-.09,7.43,1.43,12.4c.04.37-.16,2.5-.33,2.17l-.72-1.48-1.44-3.32-.81,10.91c-.06.81-.63,2.53-.17,3.09l1.75,2.09c-3.06-.16-7.18-.11-10.5.4-.71,7.42,10.59,7.11,10.4,8.01l-.79,3.71c-.21.99-.91,4.1,0,4.51l3.93,1.77c-4.07,1.6-4.94,3.94-4.72,7.47l.37,5.83c.27,4.28-2,6.66-6.61,7.65l3.19,2.12c-.3-.2.88,6.12-.05,12.38-1.27,8.49-4.19,15.38-8.56,22.89l5.25,6.18c-1.36,1.22-3.02,2.71-2.97,2.66,2.64,1.26,5.83,2.75,6.21,4.5.58,3.19,1.35,6.59,3.81,8.85,2.21,2.03,5.77,3.06,8.19,2.21l3.06,6.65.94,4.11c.19.82,2.12,1.12,3.01,1.49l8.67,9.13,6.43,9.73c3.02,4.58.35,10-1.15,14.58-1.46,4.44-2.61,8.29-5.28,11.86l-9.43,12.59-9.67,10.42c-1.91,2.06-7.6,4.28-8.84,6.69.09,5.04-1.83,7.24-5.84,8.3l-2.71,6.93c.57,4.78,7.04,7.62,11.82,5.1,2.62.95,5.09,3.25,7.36,5.84,2.6-.34,7.47-1.8,10.03-1.54l12.99,1.32,1.73-11.88,5.02-22.14,7.76-23.61c1.58-4.79,2.69-8.78,3.6-13.74.98-5.38,3.14-11.19.78-16.67l-6.57-4.66c-9.22-6.54-7.15-13.39-9.54-12.52l-2.79,1.02-3.83-5.97-1.55-3.18-3.18-.66-5.41-5.72c.9-2.53,4.57-6.06,6.59-5.27l6.19,2.41-.21,3.97,4.08-1.1c.66-.18,1.55,5.08,2.88,4.08l1.59-1.2c.43-.33,2.04-.86,2.18-.34l.59,2.23c.34,1.29,2.23,2.76,3.6,4.27l3.75,4.12,3.36,1.04c.59.18.7,2.3,1.08,2.85,2.04,2.94,5.63,3,10.11,1.79.63,2.39.82,5.03,1.02,8.78-.89.82.21-.19,1.13-1.04.48-.93,2.88-3.27,3.66-2.54l2.95,2.79,12.78,8.61-5.15,13.65-3.65,9.1c-3.74,9.33-8.41,17.71-14.44,25.85-5.44,7.34-5.37,15.97-12.29,25.35,7.74,2.24,13.42.64,20.51,1.58l14.06,1.86,5.1-1.46-.06,6.39,9.33-7.16c1.08-.83,4.61-1.84,4.57-3.18-.1-3.66-5.43-6.9-.61-16.8h0ZM755.9,1006.65l-4.37-6.69c2.46-1.28,4.06.74,6,1.87l5.25,3.07-6.88,1.76h0ZM773.15,1018.36l-4.94.3.6,5.76,4.07,11.27c1.19,3.3,1.84,4.99,2.7,8.7l4.78,20.68c.16.7-1.24,3.1-1.67,2.66-.44-.44-1.41-1.58-1.7-2.16l-4.58-9.29c-3.76-2.81-3.75-4.19-4.67-8.91l-4.17-10.35-2.97-7.33c-1.36-3.36-2.21-7.04-.63-10.13l6.15-.12c.14-.38-.25-2.64-.75-2.61l-3.61.21,2.62-5.52c.33-1.39.48-2.99,1.16-3.68.69-.69,3.11.42,4.03.9,3.84,2,5.02,5.47,3.58,9.63h0ZM772.9,994.32l-3.25,4.47c-4.63,2.52-9.27.08-12.35-3.63-3.93-4.74-3.84-8.88-.67-15.02l8.76,5c3.49,1.99,7.66,4.36,7.51,9.18h0ZM760.15,961.14c3.47-1.17,8.56,3.06,8.92,7.88-1.25.43-3.92.14-7.14-.56l-7.73,2.75c-.77,4.23-4.59,6.22-8.45,5.49,3.72-6.53,7.36-13.18,14.4-15.56ZM840.91,876.34l3.58-7.46c1.12.64,2.68,3.05,2.57,4.15-.39,3.91-5.96,9.66-8.73,7.9-2.47-1.56.84-4.66,2.58-4.59h0ZM700.24,1043.77l-4.86,2.83c-.3-3.8-.02-7.85,1.24-11.6l2.1-6.26c.41-1.23.55-3.17.85-5.71,2.44.84,3.44,2.34,4.23,5.03.93,3.17,2.8,6.95,3.04,10.31.1,2-4.77,4.35-6.6,5.41h0Z"/>
    <path class="cls-3" d="M680.61,929.85c-26.24,5.27-53.72-6.37-73.21-24.71s-32.21-42.65-43.12-67.09c-18.69-41.86-30.43-97.65,3.84-128.09,12.17-10.81,28.18-16.1,43.9-20.33,60.26-16.19,123.65-20.59,185.57-12.88,16.6,2.07,33.65,5.21,47.52,14.55,38.7,26.03,34.53,84.2,19.47,128.35-10.6,31.07-24.81,61.68-47.63,85.29-22.82,23.6-55.43,39.44-88.08,35.93,22.97,1.86,43.05-18.29,49.24-40.5,6.19-22.2,1.9-45.82-2.41-68.46-1-5.25-2.57-11.26-7.43-13.5-29.68-13.66-67.72-6.2-90.04,17.66-22.32,23.86-27.24,62.31-11.63,91.02-10.39-12.86-15.25-30.04-13.15-46.44"/>
  </g>
</svg>